%TF.GenerationSoftware,KiCad,Pcbnew,10.0.4*%
%TF.CreationDate,2026-07-26T03:48:10+02:00*%
%TF.ProjectId,discrete6502,64697363-7265-4746-9536-3530322e6b69,rev?*%
%TF.SameCoordinates,Original*%
%TF.FileFunction,Soldermask,Bot*%
%TF.FilePolarity,Negative*%
%FSLAX46Y46*%
G04 Gerber Fmt 4.6, Leading zero omitted, Abs format (unit mm)*
G04 Created by KiCad (PCBNEW 10.0.4) date 2026-07-26 03:48:10*
%MOMM*%
%LPD*%
G01*
G04 APERTURE LIST*
G04 Aperture macros list*
%AMRoundRect*
0 Rectangle with rounded corners*
0 $1 Rounding radius*
0 $2 $3 $4 $5 $6 $7 $8 $9 X,Y pos of 4 corners*
0 Add a 4 corners polygon primitive as box body*
4,1,4,$2,$3,$4,$5,$6,$7,$8,$9,$2,$3,0*
0 Add four circle primitives for the rounded corners*
1,1,$1+$1,$2,$3*
1,1,$1+$1,$4,$5*
1,1,$1+$1,$6,$7*
1,1,$1+$1,$8,$9*
0 Add four rect primitives between the rounded corners*
20,1,$1+$1,$2,$3,$4,$5,0*
20,1,$1+$1,$4,$5,$6,$7,0*
20,1,$1+$1,$6,$7,$8,$9,0*
20,1,$1+$1,$8,$9,$2,$3,0*%
%AMFreePoly0*
4,1,37,0.800000,0.796148,0.878414,0.796148,1.032228,0.765552,1.177117,0.705537,1.307515,0.618408,1.418408,0.507515,1.505537,0.377117,1.565552,0.232228,1.596148,0.078414,1.596148,-0.078414,1.565552,-0.232228,1.505537,-0.377117,1.418408,-0.507515,1.307515,-0.618408,1.177117,-0.705537,1.032228,-0.765552,0.878414,-0.796148,0.800000,-0.796148,0.800000,-0.800000,-1.400000,-0.800000,
-1.403843,-0.796157,-1.439018,-0.796157,-1.511114,-0.766294,-1.566294,-0.711114,-1.596157,-0.639018,-1.596157,-0.603843,-1.600000,-0.600000,-1.600000,0.600000,-1.596157,0.603843,-1.596157,0.639018,-1.566294,0.711114,-1.511114,0.766294,-1.439018,0.796157,-1.403843,0.796157,-1.400000,0.800000,0.800000,0.800000,0.800000,0.796148,0.800000,0.796148,$1*%
%AMFreePoly1*
4,1,37,1.403843,0.796157,1.439018,0.796157,1.511114,0.766294,1.566294,0.711114,1.596157,0.639018,1.596157,0.603843,1.600000,0.600000,1.600000,-0.600000,1.596157,-0.603843,1.596157,-0.639018,1.566294,-0.711114,1.511114,-0.766294,1.439018,-0.796157,1.403843,-0.796157,1.400000,-0.800000,-0.800000,-0.800000,-0.800000,-0.796148,-0.878414,-0.796148,-1.032228,-0.765552,-1.177117,-0.705537,
-1.307515,-0.618408,-1.418408,-0.507515,-1.505537,-0.377117,-1.565552,-0.232228,-1.596148,-0.078414,-1.596148,0.078414,-1.565552,0.232228,-1.505537,0.377117,-1.418408,0.507515,-1.307515,0.618408,-1.177117,0.705537,-1.032228,0.765552,-0.878414,0.796148,-0.800000,0.796148,-0.800000,0.800000,1.400000,0.800000,1.403843,0.796157,1.403843,0.796157,$1*%
G04 Aperture macros list end*
%ADD10R,11.700000X11.700000*%
%ADD11C,3.200000*%
%ADD12RoundRect,0.135000X0.135000X0.185000X-0.135000X0.185000X-0.135000X-0.185000X0.135000X-0.185000X0*%
%ADD13RoundRect,0.140000X0.140000X0.170000X-0.140000X0.170000X-0.140000X-0.170000X0.140000X-0.170000X0*%
%ADD14RoundRect,0.112500X0.187500X0.112500X-0.187500X0.112500X-0.187500X-0.112500X0.187500X-0.112500X0*%
%ADD15RoundRect,0.140000X0.170000X-0.140000X0.170000X0.140000X-0.170000X0.140000X-0.170000X-0.140000X0*%
%ADD16RoundRect,0.135000X0.185000X-0.135000X0.185000X0.135000X-0.185000X0.135000X-0.185000X-0.135000X0*%
%ADD17RoundRect,0.250000X0.250000X0.475000X-0.250000X0.475000X-0.250000X-0.475000X0.250000X-0.475000X0*%
%ADD18O,1.100000X1.800000*%
%ADD19O,1.050000X1.450000*%
%ADD20FreePoly0,180.000000*%
%ADD21RoundRect,0.800000X0.800000X0.000010X-0.800000X0.000010X-0.800000X-0.000010X0.800000X-0.000010X0*%
%ADD22FreePoly1,180.000000*%
%ADD23RoundRect,0.200000X0.587400X0.587400X-0.587400X0.587400X-0.587400X-0.587400X0.587400X-0.587400X0*%
%ADD24C,1.574800*%
%ADD25RoundRect,0.300000X0.450000X0.450000X-0.450000X0.450000X-0.450000X-0.450000X0.450000X-0.450000X0*%
G04 APERTURE END LIST*
D10*
%TO.C,TP7*%
X7050000Y-178462401D03*
%TD*%
%TO.C,TP27*%
X128518100Y-7050000D03*
%TD*%
%TO.C,TP19*%
X283650000Y-214903199D03*
%TD*%
%TO.C,TP22*%
X283650000Y-288463855D03*
%TD*%
%TO.C,TP28*%
X108559940Y-7050000D03*
%TD*%
%TO.C,TP6*%
X7050000Y-298263606D03*
%TD*%
%TO.C,TP5*%
X7050000Y-278332571D03*
%TD*%
%TO.C,TP16*%
X231656904Y-314950000D03*
%TD*%
%TO.C,TP30*%
X37442798Y-7050000D03*
%TD*%
%TO.C,TP26*%
X57495697Y-7050000D03*
%TD*%
%TO.C,TP29*%
X77417119Y-7050000D03*
%TD*%
%TO.C,TP10*%
X64190561Y-314950000D03*
%TD*%
%TO.C,TP31*%
X13226329Y-7050000D03*
%TD*%
%TO.C,TP3*%
X7050000Y-238630452D03*
%TD*%
%TO.C,TP2*%
X7050000Y-218544245D03*
%TD*%
%TO.C,TP17*%
X283650000Y-23090984D03*
%TD*%
%TO.C,TP11*%
X85348858Y-314950000D03*
%TD*%
%TO.C,TP1*%
X7050000Y-198428334D03*
%TD*%
%TO.C,TP9*%
X39495354Y-314950000D03*
%TD*%
%TO.C,TP25*%
X234056950Y-7050000D03*
%TD*%
%TO.C,TP20*%
X283650000Y-248524719D03*
%TD*%
D11*
%TO.C,H4*%
X286200000Y-317500000D03*
%TD*%
D10*
%TO.C,TP32*%
X283650000Y-63107810D03*
%TD*%
%TO.C,TP13*%
X161550308Y-314950000D03*
%TD*%
%TO.C,TP34*%
X182613866Y-7050000D03*
%TD*%
%TO.C,TP35*%
X130200079Y-314950000D03*
%TD*%
%TO.C,TP8*%
X13531693Y-314950000D03*
%TD*%
%TO.C,TP21*%
X283650000Y-268532820D03*
%TD*%
%TO.C,TP18*%
X283650000Y-43119235D03*
%TD*%
%TO.C,TP15*%
X207309073Y-314950000D03*
%TD*%
D11*
%TO.C,H3*%
X4500000Y-317500000D03*
%TD*%
%TO.C,H2*%
X286200000Y-4500000D03*
%TD*%
%TO.C,H1*%
X4500000Y-4500000D03*
%TD*%
D10*
%TO.C,TP4*%
X7050000Y-258529497D03*
%TD*%
%TO.C,TP36*%
X254425758Y-314950000D03*
%TD*%
%TO.C,TP14*%
X186119196Y-314950000D03*
%TD*%
%TO.C,TP33*%
X7050000Y-122004154D03*
%TD*%
%TO.C,TP24*%
X283650000Y-194849605D03*
%TD*%
%TO.C,TP12*%
X110044065Y-314950000D03*
%TD*%
%TO.C,TP23*%
X283650000Y-308258620D03*
%TD*%
D12*
%TO.C,R215*%
X82960000Y-259000000D03*
X81940000Y-259000000D03*
%TD*%
%TO.C,R700*%
X68160000Y-96600000D03*
X67140000Y-96600000D03*
%TD*%
D13*
%TO.C,C109*%
X179130000Y-186200000D03*
X178170000Y-186200000D03*
%TD*%
D12*
%TO.C,R573*%
X227260000Y-93800000D03*
X226240000Y-93800000D03*
%TD*%
D14*
%TO.C,D58*%
X47542798Y-9900000D03*
X45442798Y-9900000D03*
%TD*%
D12*
%TO.C,R326*%
X75560000Y-96600000D03*
X74540000Y-96600000D03*
%TD*%
%TO.C,R932*%
X223560000Y-63000000D03*
X222540000Y-63000000D03*
%TD*%
%TO.C,R48*%
X90360000Y-29400000D03*
X89340000Y-29400000D03*
%TD*%
%TO.C,R1047*%
X79260000Y-236600000D03*
X78240000Y-236600000D03*
%TD*%
D15*
%TO.C,C79*%
X11800000Y-65980000D03*
X11800000Y-65020000D03*
%TD*%
D12*
%TO.C,R1059*%
X168060000Y-189000000D03*
X167040000Y-189000000D03*
%TD*%
%TO.C,R731*%
X105160000Y-244999999D03*
X104140000Y-244999999D03*
%TD*%
%TO.C,R399*%
X179160000Y-60199999D03*
X178140000Y-60199999D03*
%TD*%
D13*
%TO.C,C123*%
X142130000Y-253399999D03*
X141170000Y-253399999D03*
%TD*%
%TO.C,C106*%
X101430000Y-250600000D03*
X100470000Y-250600000D03*
%TD*%
D12*
%TO.C,R609*%
X64460000Y-186200000D03*
X63440000Y-186200000D03*
%TD*%
%TO.C,R260*%
X164360000Y-141399999D03*
X163340000Y-141399999D03*
%TD*%
%TO.C,R493*%
X138460000Y-166600000D03*
X137440000Y-166600000D03*
%TD*%
%TO.C,R830*%
X75560000Y-105000000D03*
X74540000Y-105000000D03*
%TD*%
%TO.C,R382*%
X182860000Y-270200000D03*
X181840000Y-270200000D03*
%TD*%
%TO.C,R701*%
X97760000Y-121800000D03*
X96740000Y-121800000D03*
%TD*%
D15*
%TO.C,C89*%
X11800000Y-100980000D03*
X11800000Y-100020000D03*
%TD*%
D12*
%TO.C,R801*%
X175460000Y-211399999D03*
X174440000Y-211399999D03*
%TD*%
D15*
%TO.C,C31*%
X8500000Y-153480000D03*
X8500000Y-152520000D03*
%TD*%
D12*
%TO.C,R743*%
X38560000Y-68600000D03*
X37540000Y-68600000D03*
%TD*%
%TO.C,R1041*%
X64460000Y-261799999D03*
X63440000Y-261799999D03*
%TD*%
%TO.C,R202*%
X75560000Y-186200000D03*
X74540000Y-186200000D03*
%TD*%
%TO.C,R110*%
X256860000Y-163799999D03*
X255840000Y-163799999D03*
%TD*%
%TO.C,R221*%
X153260000Y-85399999D03*
X152240000Y-85399999D03*
%TD*%
%TO.C,R983*%
X171760000Y-236600000D03*
X170740000Y-236600000D03*
%TD*%
%TO.C,R570*%
X186560000Y-141399999D03*
X185540000Y-141399999D03*
%TD*%
%TO.C,R479*%
X60760000Y-29400000D03*
X59740000Y-29400000D03*
%TD*%
%TO.C,R667*%
X216160000Y-68600000D03*
X215140000Y-68600000D03*
%TD*%
%TO.C,R980*%
X175460000Y-26600000D03*
X174440000Y-26600000D03*
%TD*%
%TO.C,R355*%
X142160000Y-203000000D03*
X141140000Y-203000000D03*
%TD*%
%TO.C,R349*%
X242060000Y-133000000D03*
X241040000Y-133000000D03*
%TD*%
%TO.C,R338*%
X49660000Y-273000000D03*
X48640000Y-273000000D03*
%TD*%
%TO.C,R798*%
X112560000Y-273000000D03*
X111540000Y-273000000D03*
%TD*%
%TO.C,R962*%
X253160000Y-99399999D03*
X252140000Y-99399999D03*
%TD*%
%TO.C,R780*%
X168060000Y-250600000D03*
X167040000Y-250600000D03*
%TD*%
D15*
%TO.C,C5*%
X8500000Y-34480000D03*
X8500000Y-33520000D03*
%TD*%
D12*
%TO.C,R180*%
X227260000Y-68600000D03*
X226240000Y-68600000D03*
%TD*%
%TO.C,R790*%
X105160000Y-267399999D03*
X104140000Y-267399999D03*
%TD*%
%TO.C,R24*%
X82960000Y-166600000D03*
X81940000Y-166600000D03*
%TD*%
%TO.C,R345*%
X153260000Y-60199999D03*
X152240000Y-60199999D03*
%TD*%
%TO.C,R839*%
X134760000Y-68600000D03*
X133740000Y-68600000D03*
%TD*%
%TO.C,R501*%
X45960000Y-200200000D03*
X44940000Y-200200000D03*
%TD*%
%TO.C,R1025*%
X149560000Y-259000000D03*
X148540000Y-259000000D03*
%TD*%
%TO.C,R575*%
X142160000Y-166600000D03*
X141140000Y-166600000D03*
%TD*%
%TO.C,R376*%
X168060000Y-169399999D03*
X167040000Y-169399999D03*
%TD*%
%TO.C,R86*%
X212460000Y-133000000D03*
X211440000Y-133000000D03*
%TD*%
%TO.C,R18*%
X145860000Y-60199999D03*
X144840000Y-60199999D03*
%TD*%
%TO.C,R730*%
X119960000Y-105000000D03*
X118940000Y-105000000D03*
%TD*%
%TO.C,R1003*%
X168060000Y-141399999D03*
X167040000Y-141399999D03*
%TD*%
%TO.C,R620*%
X212460000Y-166600000D03*
X211440000Y-166600000D03*
%TD*%
%TO.C,R880*%
X116260000Y-65800000D03*
X115240000Y-65800000D03*
%TD*%
%TO.C,R1054*%
X193960000Y-219799999D03*
X192940000Y-219799999D03*
%TD*%
%TO.C,R718*%
X179160000Y-211399999D03*
X178140000Y-211399999D03*
%TD*%
%TO.C,R70*%
X134760000Y-65800000D03*
X133740000Y-65800000D03*
%TD*%
%TO.C,R1053*%
X197660000Y-211399999D03*
X196640000Y-211399999D03*
%TD*%
D13*
%TO.C,C110*%
X179130000Y-194600000D03*
X178170000Y-194600000D03*
%TD*%
D12*
%TO.C,R219*%
X208760000Y-23799999D03*
X207740000Y-23799999D03*
%TD*%
%TO.C,R912*%
X197660000Y-287000000D03*
X196640000Y-287000000D03*
%TD*%
%TO.C,R335*%
X60760000Y-189000000D03*
X59740000Y-189000000D03*
%TD*%
%TO.C,R787*%
X90360000Y-63000000D03*
X89340000Y-63000000D03*
%TD*%
%TO.C,R271*%
X82960000Y-211399999D03*
X81940000Y-211399999D03*
%TD*%
%TO.C,R304*%
X208760000Y-99399999D03*
X207740000Y-99399999D03*
%TD*%
%TO.C,R47*%
X45960000Y-63000000D03*
X44940000Y-63000000D03*
%TD*%
%TO.C,R673*%
X108860000Y-203000000D03*
X107840000Y-203000000D03*
%TD*%
D14*
%TO.C,D64*%
X192713866Y-9900000D03*
X190613866Y-9900000D03*
%TD*%
D12*
%TO.C,R820*%
X201360000Y-161000000D03*
X200340000Y-161000000D03*
%TD*%
%TO.C,R153*%
X64460000Y-99399999D03*
X63440000Y-99399999D03*
%TD*%
%TO.C,R603*%
X68160000Y-244999999D03*
X67140000Y-244999999D03*
%TD*%
%TO.C,R149*%
X42260000Y-71400000D03*
X41240000Y-71400000D03*
%TD*%
%TO.C,R130*%
X186560000Y-259000000D03*
X185540000Y-259000000D03*
%TD*%
%TO.C,R511*%
X116260000Y-29400000D03*
X115240000Y-29400000D03*
%TD*%
D15*
%TO.C,C45*%
X282200000Y-114980000D03*
X282200000Y-114020000D03*
%TD*%
D12*
%TO.C,R593*%
X145860000Y-51800000D03*
X144840000Y-51800000D03*
%TD*%
%TO.C,R306*%
X138460000Y-133000000D03*
X137440000Y-133000000D03*
%TD*%
%TO.C,R953*%
X34860000Y-71400000D03*
X33840000Y-71400000D03*
%TD*%
%TO.C,R538*%
X142160000Y-43400000D03*
X141140000Y-43400000D03*
%TD*%
%TO.C,R952*%
X223560000Y-158200000D03*
X222540000Y-158200000D03*
%TD*%
D15*
%TO.C,C77*%
X11800000Y-58980000D03*
X11800000Y-58020000D03*
%TD*%
D12*
%TO.C,R548*%
X90360000Y-133000000D03*
X89340000Y-133000000D03*
%TD*%
%TO.C,R927*%
X108860000Y-82600000D03*
X107840000Y-82600000D03*
%TD*%
%TO.C,R557*%
X108860000Y-197399999D03*
X107840000Y-197399999D03*
%TD*%
%TO.C,R297*%
X97760000Y-63000000D03*
X96740000Y-63000000D03*
%TD*%
%TO.C,R1077*%
X86977119Y-7800000D03*
X85957119Y-7800000D03*
%TD*%
%TO.C,R724*%
X156960000Y-127399999D03*
X155940000Y-127399999D03*
%TD*%
%TO.C,R27*%
X190260000Y-236600000D03*
X189240000Y-236600000D03*
%TD*%
%TO.C,R562*%
X149560000Y-225399999D03*
X148540000Y-225399999D03*
%TD*%
%TO.C,R987*%
X57060000Y-68600000D03*
X56040000Y-68600000D03*
%TD*%
%TO.C,R509*%
X142160000Y-270200000D03*
X141140000Y-270200000D03*
%TD*%
%TO.C,R386*%
X97760000Y-222600000D03*
X96740000Y-222600000D03*
%TD*%
%TO.C,R460*%
X179160000Y-287000000D03*
X178140000Y-287000000D03*
%TD*%
%TO.C,R277*%
X153260000Y-130199999D03*
X152240000Y-130199999D03*
%TD*%
%TO.C,R413*%
X45960000Y-152600000D03*
X44940000Y-152600000D03*
%TD*%
%TO.C,R977*%
X216160000Y-79800000D03*
X215140000Y-79800000D03*
%TD*%
%TO.C,R789*%
X101460000Y-219799999D03*
X100440000Y-219799999D03*
%TD*%
%TO.C,R957*%
X223560000Y-225399999D03*
X222540000Y-225399999D03*
%TD*%
%TO.C,R936*%
X145860000Y-65800000D03*
X144840000Y-65800000D03*
%TD*%
%TO.C,R696*%
X68160000Y-189000000D03*
X67140000Y-189000000D03*
%TD*%
D15*
%TO.C,C93*%
X11800000Y-142980000D03*
X11800000Y-142020000D03*
%TD*%
%TO.C,C54*%
X282200000Y-146480000D03*
X282200000Y-145520000D03*
%TD*%
D12*
%TO.C,R860*%
X208760000Y-63000000D03*
X207740000Y-63000000D03*
%TD*%
%TO.C,R1023*%
X149560000Y-233799999D03*
X148540000Y-233799999D03*
%TD*%
%TO.C,R902*%
X142160000Y-71400000D03*
X141140000Y-71400000D03*
%TD*%
%TO.C,R481*%
X256860000Y-105000000D03*
X255840000Y-105000000D03*
%TD*%
%TO.C,R116*%
X142160000Y-287000000D03*
X141140000Y-287000000D03*
%TD*%
%TO.C,R1012*%
X16360000Y-79800000D03*
X15340000Y-79800000D03*
%TD*%
%TO.C,R754*%
X60760000Y-273000000D03*
X59740000Y-273000000D03*
%TD*%
%TO.C,R72*%
X57060000Y-166600000D03*
X56040000Y-166600000D03*
%TD*%
%TO.C,R848*%
X171760000Y-172200000D03*
X170740000Y-172200000D03*
%TD*%
%TO.C,R164*%
X179160000Y-259000000D03*
X178140000Y-259000000D03*
%TD*%
%TO.C,R1075*%
X47002798Y-7800000D03*
X45982798Y-7800000D03*
%TD*%
%TO.C,R923*%
X57060000Y-259000000D03*
X56040000Y-259000000D03*
%TD*%
%TO.C,R886*%
X168060000Y-63000000D03*
X167040000Y-63000000D03*
%TD*%
%TO.C,R834*%
X186560000Y-267399999D03*
X185540000Y-267399999D03*
%TD*%
%TO.C,R405*%
X219860000Y-163799999D03*
X218840000Y-163799999D03*
%TD*%
%TO.C,R379*%
X97760000Y-278599999D03*
X96740000Y-278599999D03*
%TD*%
%TO.C,R935*%
X27460000Y-54599999D03*
X26440000Y-54599999D03*
%TD*%
%TO.C,R230*%
X34860000Y-65800000D03*
X33840000Y-65800000D03*
%TD*%
%TO.C,R250*%
X94060000Y-29400000D03*
X93040000Y-29400000D03*
%TD*%
%TO.C,R551*%
X160660000Y-133000000D03*
X159640000Y-133000000D03*
%TD*%
%TO.C,R910*%
X101460000Y-65800000D03*
X100440000Y-65800000D03*
%TD*%
%TO.C,R477*%
X97760000Y-253399999D03*
X96740000Y-253399999D03*
%TD*%
%TO.C,R161*%
X160660000Y-77000000D03*
X159640000Y-77000000D03*
%TD*%
%TO.C,R398*%
X127360000Y-158200000D03*
X126340000Y-158200000D03*
%TD*%
%TO.C,R30*%
X101460000Y-63000000D03*
X100440000Y-63000000D03*
%TD*%
%TO.C,R659*%
X190260000Y-200200000D03*
X189240000Y-200200000D03*
%TD*%
%TO.C,R795*%
X112560000Y-57400000D03*
X111540000Y-57400000D03*
%TD*%
%TO.C,R906*%
X31160000Y-60199999D03*
X30140000Y-60199999D03*
%TD*%
%TO.C,R74*%
X64460000Y-107800000D03*
X63440000Y-107800000D03*
%TD*%
%TO.C,R1002*%
X182860000Y-214200000D03*
X181840000Y-214200000D03*
%TD*%
%TO.C,R330*%
X134760000Y-233799999D03*
X133740000Y-233799999D03*
%TD*%
%TO.C,R299*%
X71860000Y-244999999D03*
X70840000Y-244999999D03*
%TD*%
%TO.C,R716*%
X227260000Y-208600000D03*
X226240000Y-208600000D03*
%TD*%
%TO.C,R108*%
X182860000Y-110600000D03*
X181840000Y-110600000D03*
%TD*%
%TO.C,R489*%
X145860000Y-127399999D03*
X144840000Y-127399999D03*
%TD*%
%TO.C,R22*%
X171760000Y-247799999D03*
X170740000Y-247799999D03*
%TD*%
%TO.C,R873*%
X193960000Y-259000000D03*
X192940000Y-259000000D03*
%TD*%
%TO.C,R476*%
X153260000Y-172200000D03*
X152240000Y-172200000D03*
%TD*%
%TO.C,R874*%
X105160000Y-259000000D03*
X104140000Y-259000000D03*
%TD*%
D15*
%TO.C,C73*%
X11800000Y-44980000D03*
X11800000Y-44020000D03*
%TD*%
D12*
%TO.C,R959*%
X153260000Y-214200000D03*
X152240000Y-214200000D03*
%TD*%
%TO.C,R945*%
X153260000Y-273000000D03*
X152240000Y-273000000D03*
%TD*%
%TO.C,R151*%
X145860000Y-270200000D03*
X144840000Y-270200000D03*
%TD*%
%TO.C,R685*%
X90360000Y-99399999D03*
X89340000Y-99399999D03*
%TD*%
%TO.C,R997*%
X119960000Y-133000000D03*
X118940000Y-133000000D03*
%TD*%
%TO.C,R708*%
X71860000Y-256200000D03*
X70840000Y-256200000D03*
%TD*%
%TO.C,R841*%
X190260000Y-26600000D03*
X189240000Y-26600000D03*
%TD*%
D16*
%TO.C,R1092*%
X42400000Y-143510000D03*
X42400000Y-142490000D03*
%TD*%
D12*
%TO.C,R533*%
X227260000Y-219799999D03*
X226240000Y-219799999D03*
%TD*%
%TO.C,R833*%
X238360000Y-60199999D03*
X237340000Y-60199999D03*
%TD*%
%TO.C,R536*%
X123660000Y-93800000D03*
X122640000Y-93800000D03*
%TD*%
%TO.C,R512*%
X105160000Y-71400000D03*
X104140000Y-71400000D03*
%TD*%
D13*
%TO.C,C118*%
X131030000Y-197399999D03*
X130070000Y-197399999D03*
%TD*%
D12*
%TO.C,R878*%
X71860000Y-82600000D03*
X70840000Y-82600000D03*
%TD*%
%TO.C,R882*%
X212460000Y-155399999D03*
X211440000Y-155399999D03*
%TD*%
%TO.C,R498*%
X42260000Y-169399999D03*
X41240000Y-169399999D03*
%TD*%
D15*
%TO.C,C17*%
X8500000Y-76480000D03*
X8500000Y-75520000D03*
%TD*%
D12*
%TO.C,R1019*%
X149560000Y-189000000D03*
X148540000Y-189000000D03*
%TD*%
%TO.C,R583*%
X119960000Y-91000000D03*
X118940000Y-91000000D03*
%TD*%
%TO.C,R58*%
X267960000Y-121800000D03*
X266940000Y-121800000D03*
%TD*%
D15*
%TO.C,C75*%
X11800000Y-51980000D03*
X11800000Y-51020000D03*
%TD*%
D12*
%TO.C,R920*%
X186560000Y-205799999D03*
X185540000Y-205799999D03*
%TD*%
D15*
%TO.C,C44*%
X282200000Y-111480000D03*
X282200000Y-110520000D03*
%TD*%
D12*
%TO.C,R251*%
X123660000Y-287000000D03*
X122640000Y-287000000D03*
%TD*%
%TO.C,R674*%
X149560000Y-65800000D03*
X148540000Y-65800000D03*
%TD*%
%TO.C,R541*%
X171760000Y-124600000D03*
X170740000Y-124600000D03*
%TD*%
%TO.C,R1046*%
X79260000Y-222600000D03*
X78240000Y-222600000D03*
%TD*%
%TO.C,R1044*%
X79260000Y-200200000D03*
X78240000Y-200200000D03*
%TD*%
%TO.C,R523*%
X256860000Y-74199999D03*
X255840000Y-74199999D03*
%TD*%
%TO.C,R323*%
X53360000Y-32200000D03*
X52340000Y-32200000D03*
%TD*%
%TO.C,R266*%
X201360000Y-63000000D03*
X200340000Y-63000000D03*
%TD*%
%TO.C,R877*%
X223560000Y-239399999D03*
X222540000Y-239399999D03*
%TD*%
%TO.C,R372*%
X227260000Y-133000000D03*
X226240000Y-133000000D03*
%TD*%
%TO.C,R119*%
X53360000Y-163799999D03*
X52340000Y-163799999D03*
%TD*%
%TO.C,R285*%
X82960000Y-236600000D03*
X81940000Y-236600000D03*
%TD*%
%TO.C,R897*%
X168060000Y-214200000D03*
X167040000Y-214200000D03*
%TD*%
%TO.C,R615*%
X94060000Y-284200000D03*
X93040000Y-284200000D03*
%TD*%
%TO.C,R828*%
X186560000Y-124600000D03*
X185540000Y-124600000D03*
%TD*%
%TO.C,R767*%
X142160000Y-172200000D03*
X141140000Y-172200000D03*
%TD*%
D13*
%TO.C,C149*%
X60730000Y-292599999D03*
X59770000Y-292599999D03*
%TD*%
%TO.C,C134*%
X249430000Y-180600000D03*
X248470000Y-180600000D03*
%TD*%
D12*
%TO.C,R454*%
X223560000Y-191799999D03*
X222540000Y-191799999D03*
%TD*%
%TO.C,R9*%
X190260000Y-133000000D03*
X189240000Y-133000000D03*
%TD*%
%TO.C,R68*%
X149560000Y-273000000D03*
X148540000Y-273000000D03*
%TD*%
%TO.C,R661*%
X64460000Y-82600000D03*
X63440000Y-82600000D03*
%TD*%
%TO.C,R939*%
X86660000Y-65800000D03*
X85640000Y-65800000D03*
%TD*%
%TO.C,R453*%
X60760000Y-200200000D03*
X59740000Y-200200000D03*
%TD*%
%TO.C,R186*%
X205060000Y-63000000D03*
X204040000Y-63000000D03*
%TD*%
%TO.C,R540*%
X168060000Y-32200000D03*
X167040000Y-32200000D03*
%TD*%
D15*
%TO.C,C26*%
X8500000Y-107980000D03*
X8500000Y-107020000D03*
%TD*%
D12*
%TO.C,R524*%
X186560000Y-287000000D03*
X185540000Y-287000000D03*
%TD*%
%TO.C,R232*%
X127360000Y-96600000D03*
X126340000Y-96600000D03*
%TD*%
%TO.C,R1021*%
X149560000Y-211399999D03*
X148540000Y-211399999D03*
%TD*%
D14*
%TO.C,D62*%
X87517119Y-9900000D03*
X85417119Y-9900000D03*
%TD*%
D12*
%TO.C,R680*%
X179160000Y-99399999D03*
X178140000Y-99399999D03*
%TD*%
%TO.C,R383*%
X23760000Y-57400000D03*
X22740000Y-57400000D03*
%TD*%
%TO.C,R412*%
X134760000Y-217000000D03*
X133740000Y-217000000D03*
%TD*%
%TO.C,R352*%
X71860000Y-172200000D03*
X70840000Y-172200000D03*
%TD*%
%TO.C,R168*%
X79260000Y-172200000D03*
X78240000Y-172200000D03*
%TD*%
D15*
%TO.C,C22*%
X8500000Y-93980000D03*
X8500000Y-93020000D03*
%TD*%
D12*
%TO.C,R853*%
X131060000Y-68600000D03*
X130040000Y-68600000D03*
%TD*%
%TO.C,R705*%
X168060000Y-68600000D03*
X167040000Y-68600000D03*
%TD*%
%TO.C,R267*%
X182860000Y-63000000D03*
X181840000Y-63000000D03*
%TD*%
%TO.C,R985*%
X45960000Y-189000000D03*
X44940000Y-189000000D03*
%TD*%
%TO.C,R698*%
X38560000Y-65800000D03*
X37540000Y-65800000D03*
%TD*%
%TO.C,R459*%
X238360000Y-107800000D03*
X237340000Y-107800000D03*
%TD*%
D13*
%TO.C,C124*%
X142130000Y-264600000D03*
X141170000Y-264600000D03*
%TD*%
D12*
%TO.C,R587*%
X138460000Y-203000000D03*
X137440000Y-203000000D03*
%TD*%
%TO.C,R836*%
X205060000Y-107800000D03*
X204040000Y-107800000D03*
%TD*%
%TO.C,R1082*%
X26186329Y-7800000D03*
X25166329Y-7800000D03*
%TD*%
D15*
%TO.C,C42*%
X282200000Y-104480000D03*
X282200000Y-103520000D03*
%TD*%
D12*
%TO.C,R445*%
X238360000Y-130199999D03*
X237340000Y-130199999D03*
%TD*%
%TO.C,R192*%
X119960000Y-203000000D03*
X118940000Y-203000000D03*
%TD*%
%TO.C,R268*%
X145860000Y-208600000D03*
X144840000Y-208600000D03*
%TD*%
%TO.C,R145*%
X182860000Y-287000000D03*
X181840000Y-287000000D03*
%TD*%
%TO.C,R46*%
X175460000Y-236600000D03*
X174440000Y-236600000D03*
%TD*%
%TO.C,R109*%
X175460000Y-205799999D03*
X174440000Y-205799999D03*
%TD*%
D15*
%TO.C,C62*%
X282200000Y-174480000D03*
X282200000Y-173520000D03*
%TD*%
D12*
%TO.C,R321*%
X123660000Y-138600000D03*
X122640000Y-138600000D03*
%TD*%
%TO.C,R965*%
X101460000Y-183399999D03*
X100440000Y-183399999D03*
%TD*%
%TO.C,R88*%
X186560000Y-222600000D03*
X185540000Y-222600000D03*
%TD*%
%TO.C,R421*%
X79260000Y-287000000D03*
X78240000Y-287000000D03*
%TD*%
%TO.C,R39*%
X193960000Y-247799999D03*
X192940000Y-247799999D03*
%TD*%
%TO.C,R1037*%
X64460000Y-214200000D03*
X63440000Y-214200000D03*
%TD*%
%TO.C,R958*%
X249460000Y-147000000D03*
X248440000Y-147000000D03*
%TD*%
%TO.C,R42*%
X208760000Y-161000000D03*
X207740000Y-161000000D03*
%TD*%
%TO.C,R475*%
X216160000Y-233799999D03*
X215140000Y-233799999D03*
%TD*%
%TO.C,R451*%
X82960000Y-65800000D03*
X81940000Y-65800000D03*
%TD*%
%TO.C,R627*%
X234660000Y-57400000D03*
X233640000Y-57400000D03*
%TD*%
%TO.C,R796*%
X168060000Y-172200000D03*
X167040000Y-172200000D03*
%TD*%
%TO.C,R888*%
X60760000Y-65800000D03*
X59740000Y-65800000D03*
%TD*%
%TO.C,R898*%
X216160000Y-93800000D03*
X215140000Y-93800000D03*
%TD*%
%TO.C,R224*%
X112560000Y-186200000D03*
X111540000Y-186200000D03*
%TD*%
%TO.C,R365*%
X64460000Y-102199999D03*
X63440000Y-102199999D03*
%TD*%
%TO.C,R994*%
X142160000Y-186200000D03*
X141140000Y-186200000D03*
%TD*%
%TO.C,R217*%
X145860000Y-63000000D03*
X144840000Y-63000000D03*
%TD*%
%TO.C,R893*%
X60760000Y-211399999D03*
X59740000Y-211399999D03*
%TD*%
D15*
%TO.C,C46*%
X282200000Y-118480000D03*
X282200000Y-117520000D03*
%TD*%
D12*
%TO.C,R905*%
X64460000Y-105000000D03*
X63440000Y-105000000D03*
%TD*%
%TO.C,R247*%
X186560000Y-242200000D03*
X185540000Y-242200000D03*
%TD*%
%TO.C,R410*%
X97760000Y-183399999D03*
X96740000Y-183399999D03*
%TD*%
%TO.C,R513*%
X108860000Y-222600000D03*
X107840000Y-222600000D03*
%TD*%
%TO.C,R302*%
X171760000Y-102199999D03*
X170740000Y-102199999D03*
%TD*%
%TO.C,R885*%
X223560000Y-71400000D03*
X222540000Y-71400000D03*
%TD*%
D16*
%TO.C,R1104*%
X39200000Y-146910000D03*
X39200000Y-145890000D03*
%TD*%
D12*
%TO.C,R134*%
X171760000Y-96600000D03*
X170740000Y-96600000D03*
%TD*%
%TO.C,R740*%
X94060000Y-166600000D03*
X93040000Y-166600000D03*
%TD*%
%TO.C,R918*%
X49660000Y-71400000D03*
X48640000Y-71400000D03*
%TD*%
%TO.C,R783*%
X116260000Y-172200000D03*
X115240000Y-172200000D03*
%TD*%
D14*
%TO.C,D61*%
X23326329Y-12000000D03*
X21226329Y-12000000D03*
%TD*%
D12*
%TO.C,R320*%
X112560000Y-270200000D03*
X111540000Y-270200000D03*
%TD*%
%TO.C,R638*%
X179160000Y-200200000D03*
X178140000Y-200200000D03*
%TD*%
%TO.C,R369*%
X119960000Y-189000000D03*
X118940000Y-189000000D03*
%TD*%
%TO.C,R713*%
X45960000Y-259000000D03*
X44940000Y-259000000D03*
%TD*%
D16*
%TO.C,R1106*%
X45600000Y-146910000D03*
X45600000Y-145890000D03*
%TD*%
D12*
%TO.C,R439*%
X212460000Y-175000000D03*
X211440000Y-175000000D03*
%TD*%
%TO.C,R236*%
X101460000Y-102199999D03*
X100440000Y-102199999D03*
%TD*%
D15*
%TO.C,C28*%
X8500000Y-142980000D03*
X8500000Y-142020000D03*
%TD*%
D12*
%TO.C,R200*%
X57060000Y-32200000D03*
X56040000Y-32200000D03*
%TD*%
%TO.C,R831*%
X82960000Y-247799999D03*
X81940000Y-247799999D03*
%TD*%
%TO.C,R462*%
X208760000Y-127399999D03*
X207740000Y-127399999D03*
%TD*%
%TO.C,R126*%
X264260000Y-74199999D03*
X263240000Y-74199999D03*
%TD*%
D16*
%TO.C,R1094*%
X48800000Y-143510000D03*
X48800000Y-142490000D03*
%TD*%
D12*
%TO.C,R734*%
X216160000Y-158200000D03*
X215140000Y-158200000D03*
%TD*%
%TO.C,R171*%
X64460000Y-68600000D03*
X63440000Y-68600000D03*
%TD*%
%TO.C,R791*%
X57060000Y-287000000D03*
X56040000Y-287000000D03*
%TD*%
%TO.C,R572*%
X242060000Y-172200000D03*
X241040000Y-172200000D03*
%TD*%
%TO.C,R167*%
X242060000Y-63000000D03*
X241040000Y-63000000D03*
%TD*%
%TO.C,R637*%
X193960000Y-68600000D03*
X192940000Y-68600000D03*
%TD*%
%TO.C,R172*%
X97760000Y-287000000D03*
X96740000Y-287000000D03*
%TD*%
%TO.C,R182*%
X142160000Y-68600000D03*
X141140000Y-68600000D03*
%TD*%
%TO.C,R494*%
X153260000Y-247799999D03*
X152240000Y-247799999D03*
%TD*%
%TO.C,R205*%
X112560000Y-91000000D03*
X111540000Y-91000000D03*
%TD*%
%TO.C,R543*%
X101460000Y-233799999D03*
X100440000Y-233799999D03*
%TD*%
%TO.C,R390*%
X182860000Y-68600000D03*
X181840000Y-68600000D03*
%TD*%
D15*
%TO.C,C49*%
X282200000Y-128980000D03*
X282200000Y-128020000D03*
%TD*%
D12*
%TO.C,R209*%
X168060000Y-60199999D03*
X167040000Y-60199999D03*
%TD*%
%TO.C,R226*%
X271660000Y-121800000D03*
X270640000Y-121800000D03*
%TD*%
%TO.C,R187*%
X179160000Y-189000000D03*
X178140000Y-189000000D03*
%TD*%
%TO.C,R328*%
X75560000Y-273000000D03*
X74540000Y-273000000D03*
%TD*%
%TO.C,R777*%
X260560000Y-166600000D03*
X259540000Y-166600000D03*
%TD*%
%TO.C,R989*%
X49660000Y-284200000D03*
X48640000Y-284200000D03*
%TD*%
%TO.C,R799*%
X153260000Y-54599999D03*
X152240000Y-54599999D03*
%TD*%
%TO.C,R367*%
X75560000Y-259000000D03*
X74540000Y-259000000D03*
%TD*%
%TO.C,R496*%
X90360000Y-113399999D03*
X89340000Y-113399999D03*
%TD*%
%TO.C,R75*%
X168060000Y-225399999D03*
X167040000Y-225399999D03*
%TD*%
D13*
%TO.C,C128*%
X168030000Y-233799999D03*
X167070000Y-233799999D03*
%TD*%
D12*
%TO.C,R94*%
X156960000Y-147000000D03*
X155940000Y-147000000D03*
%TD*%
%TO.C,R808*%
X186560000Y-191799999D03*
X185540000Y-191799999D03*
%TD*%
%TO.C,R92*%
X49660000Y-250600000D03*
X48640000Y-250600000D03*
%TD*%
%TO.C,R218*%
X71860000Y-169399999D03*
X70840000Y-169399999D03*
%TD*%
%TO.C,R210*%
X105160000Y-63000000D03*
X104140000Y-63000000D03*
%TD*%
%TO.C,R282*%
X186560000Y-233799999D03*
X185540000Y-233799999D03*
%TD*%
%TO.C,R946*%
X112560000Y-169399999D03*
X111540000Y-169399999D03*
%TD*%
D15*
%TO.C,C19*%
X8500000Y-83480000D03*
X8500000Y-82520000D03*
%TD*%
D12*
%TO.C,R307*%
X216160000Y-138600000D03*
X215140000Y-138600000D03*
%TD*%
D16*
%TO.C,R1099*%
X23200000Y-146910000D03*
X23200000Y-145890000D03*
%TD*%
D12*
%TO.C,R333*%
X108860000Y-189000000D03*
X107840000Y-189000000D03*
%TD*%
%TO.C,R216*%
X193960000Y-65800000D03*
X192940000Y-65800000D03*
%TD*%
%TO.C,R566*%
X101460000Y-200200000D03*
X100440000Y-200200000D03*
%TD*%
%TO.C,R500*%
X97760000Y-197399999D03*
X96740000Y-197399999D03*
%TD*%
%TO.C,R644*%
X108860000Y-107800000D03*
X107840000Y-107800000D03*
%TD*%
%TO.C,R537*%
X123660000Y-169399999D03*
X122640000Y-169399999D03*
%TD*%
%TO.C,R579*%
X71860000Y-233799999D03*
X70840000Y-233799999D03*
%TD*%
D13*
%TO.C,C121*%
X145830000Y-233799999D03*
X144870000Y-233799999D03*
%TD*%
D12*
%TO.C,R933*%
X112560000Y-242200000D03*
X111540000Y-242200000D03*
%TD*%
%TO.C,R76*%
X105160000Y-239399999D03*
X104140000Y-239399999D03*
%TD*%
%TO.C,R1056*%
X193960000Y-244999999D03*
X192940000Y-244999999D03*
%TD*%
%TO.C,R763*%
X175460000Y-208600000D03*
X174440000Y-208600000D03*
%TD*%
%TO.C,R311*%
X116260000Y-197399999D03*
X115240000Y-197399999D03*
%TD*%
%TO.C,R121*%
X238360000Y-65800000D03*
X237340000Y-65800000D03*
%TD*%
%TO.C,R243*%
X127360000Y-189000000D03*
X126340000Y-189000000D03*
%TD*%
%TO.C,R1020*%
X149560000Y-200200000D03*
X148540000Y-200200000D03*
%TD*%
%TO.C,R1065*%
X168060000Y-259000000D03*
X167040000Y-259000000D03*
%TD*%
%TO.C,R289*%
X190260000Y-270200000D03*
X189240000Y-270200000D03*
%TD*%
%TO.C,R259*%
X68160000Y-236600000D03*
X67140000Y-236600000D03*
%TD*%
%TO.C,R393*%
X60760000Y-68600000D03*
X59740000Y-68600000D03*
%TD*%
D15*
%TO.C,C3*%
X8500000Y-27480000D03*
X8500000Y-26520000D03*
%TD*%
D12*
%TO.C,R883*%
X216160000Y-197399999D03*
X215140000Y-197399999D03*
%TD*%
%TO.C,R327*%
X123660000Y-68600000D03*
X122640000Y-68600000D03*
%TD*%
%TO.C,R377*%
X71860000Y-113399999D03*
X70840000Y-113399999D03*
%TD*%
%TO.C,R753*%
X49660000Y-225399999D03*
X48640000Y-225399999D03*
%TD*%
%TO.C,R1045*%
X79260000Y-211399999D03*
X78240000Y-211399999D03*
%TD*%
D15*
%TO.C,C43*%
X282200000Y-107980000D03*
X282200000Y-107020000D03*
%TD*%
D12*
%TO.C,R972*%
X227260000Y-256200000D03*
X226240000Y-256200000D03*
%TD*%
%TO.C,R1030*%
X64460000Y-225399999D03*
X63440000Y-225399999D03*
%TD*%
D15*
%TO.C,C88*%
X11800000Y-97480000D03*
X11800000Y-96520000D03*
%TD*%
D12*
%TO.C,R739*%
X171760000Y-189000000D03*
X170740000Y-189000000D03*
%TD*%
%TO.C,R974*%
X260560000Y-68600000D03*
X259540000Y-68600000D03*
%TD*%
%TO.C,R118*%
X119960000Y-205799999D03*
X118940000Y-205799999D03*
%TD*%
%TO.C,R1038*%
X60760000Y-222600000D03*
X59740000Y-222600000D03*
%TD*%
%TO.C,R670*%
X60760000Y-152600000D03*
X59740000Y-152600000D03*
%TD*%
%TO.C,R602*%
X57060000Y-200200000D03*
X56040000Y-200200000D03*
%TD*%
%TO.C,R366*%
X75560000Y-287000000D03*
X74540000Y-287000000D03*
%TD*%
%TO.C,R584*%
X64460000Y-244999999D03*
X63440000Y-244999999D03*
%TD*%
%TO.C,R850*%
X219860000Y-261799999D03*
X218840000Y-261799999D03*
%TD*%
%TO.C,R423*%
X186560000Y-270200000D03*
X185540000Y-270200000D03*
%TD*%
%TO.C,R488*%
X182860000Y-166600000D03*
X181840000Y-166600000D03*
%TD*%
%TO.C,R968*%
X97760000Y-247799999D03*
X96740000Y-247799999D03*
%TD*%
%TO.C,R152*%
X179160000Y-85399999D03*
X178140000Y-85399999D03*
%TD*%
%TO.C,R527*%
X101460000Y-225399999D03*
X100440000Y-225399999D03*
%TD*%
%TO.C,R446*%
X230960000Y-152600000D03*
X229940000Y-152600000D03*
%TD*%
%TO.C,R193*%
X142160000Y-200200000D03*
X141140000Y-200200000D03*
%TD*%
%TO.C,R155*%
X16360000Y-74199999D03*
X15340000Y-74199999D03*
%TD*%
D15*
%TO.C,C65*%
X282200000Y-233980000D03*
X282200000Y-233020000D03*
%TD*%
D12*
%TO.C,R871*%
X131060000Y-93800000D03*
X130040000Y-93800000D03*
%TD*%
%TO.C,R391*%
X68160000Y-172200000D03*
X67140000Y-172200000D03*
%TD*%
%TO.C,R794*%
X256860000Y-119000000D03*
X255840000Y-119000000D03*
%TD*%
%TO.C,R529*%
X71860000Y-77000000D03*
X70840000Y-77000000D03*
%TD*%
%TO.C,R717*%
X230960000Y-147000000D03*
X229940000Y-147000000D03*
%TD*%
%TO.C,R127*%
X156960000Y-172200000D03*
X155940000Y-172200000D03*
%TD*%
%TO.C,R190*%
X16360000Y-99399999D03*
X15340000Y-99399999D03*
%TD*%
%TO.C,R762*%
X138460000Y-130199999D03*
X137440000Y-130199999D03*
%TD*%
%TO.C,R406*%
X64460000Y-88199999D03*
X63440000Y-88199999D03*
%TD*%
%TO.C,R868*%
X164360000Y-147000000D03*
X163340000Y-147000000D03*
%TD*%
%TO.C,R769*%
X190260000Y-152600000D03*
X189240000Y-152600000D03*
%TD*%
D16*
%TO.C,R1097*%
X58400000Y-143510000D03*
X58400000Y-142490000D03*
%TD*%
D12*
%TO.C,R166*%
X75560000Y-247799999D03*
X74540000Y-247799999D03*
%TD*%
%TO.C,R183*%
X138460000Y-233799999D03*
X137440000Y-233799999D03*
%TD*%
%TO.C,R2*%
X75560000Y-236600000D03*
X74540000Y-236600000D03*
%TD*%
%TO.C,R347*%
X82960000Y-200200000D03*
X81940000Y-200200000D03*
%TD*%
%TO.C,R996*%
X216160000Y-186200000D03*
X215140000Y-186200000D03*
%TD*%
%TO.C,R344*%
X68160000Y-247799999D03*
X67140000Y-247799999D03*
%TD*%
D13*
%TO.C,C152*%
X119930000Y-292599999D03*
X118970000Y-292599999D03*
%TD*%
D15*
%TO.C,C58*%
X282200000Y-160480000D03*
X282200000Y-159520000D03*
%TD*%
D12*
%TO.C,R1009*%
X64460000Y-110600000D03*
X63440000Y-110600000D03*
%TD*%
%TO.C,R817*%
X105160000Y-169399999D03*
X104140000Y-169399999D03*
%TD*%
%TO.C,R409*%
X64460000Y-166600000D03*
X63440000Y-166600000D03*
%TD*%
D15*
%TO.C,C15*%
X8500000Y-69480000D03*
X8500000Y-68520000D03*
%TD*%
D12*
%TO.C,R364*%
X138460000Y-197399999D03*
X137440000Y-197399999D03*
%TD*%
D17*
%TO.C,C99*%
X140200079Y-314200000D03*
X138300079Y-314200000D03*
%TD*%
D12*
%TO.C,R433*%
X190260000Y-261799999D03*
X189240000Y-261799999D03*
%TD*%
%TO.C,R1011*%
X186560000Y-96600000D03*
X185540000Y-96600000D03*
%TD*%
%TO.C,R113*%
X175460000Y-219799999D03*
X174440000Y-219799999D03*
%TD*%
%TO.C,R14*%
X156960000Y-169399999D03*
X155940000Y-169399999D03*
%TD*%
%TO.C,R618*%
X116260000Y-256200000D03*
X115240000Y-256200000D03*
%TD*%
%TO.C,R21*%
X219860000Y-147000000D03*
X218840000Y-147000000D03*
%TD*%
D15*
%TO.C,C39*%
X282200000Y-93980000D03*
X282200000Y-93020000D03*
%TD*%
D12*
%TO.C,R17*%
X112560000Y-135800000D03*
X111540000Y-135800000D03*
%TD*%
%TO.C,R915*%
X119960000Y-155399999D03*
X118940000Y-155399999D03*
%TD*%
%TO.C,R712*%
X223560000Y-149799999D03*
X222540000Y-149799999D03*
%TD*%
%TO.C,R525*%
X27460000Y-68600000D03*
X26440000Y-68600000D03*
%TD*%
%TO.C,R491*%
X156960000Y-113399999D03*
X155940000Y-113399999D03*
%TD*%
%TO.C,R544*%
X175460000Y-194600000D03*
X174440000Y-194600000D03*
%TD*%
%TO.C,R896*%
X234660000Y-149799999D03*
X233640000Y-149799999D03*
%TD*%
%TO.C,R471*%
X216160000Y-270200000D03*
X215140000Y-270200000D03*
%TD*%
%TO.C,R1052*%
X193960000Y-197399999D03*
X192940000Y-197399999D03*
%TD*%
D13*
%TO.C,C114*%
X168030000Y-242200000D03*
X167070000Y-242200000D03*
%TD*%
D12*
%TO.C,R176*%
X112560000Y-200200000D03*
X111540000Y-200200000D03*
%TD*%
%TO.C,R461*%
X123660000Y-65800000D03*
X122640000Y-65800000D03*
%TD*%
%TO.C,R732*%
X127360000Y-91000000D03*
X126340000Y-91000000D03*
%TD*%
%TO.C,R818*%
X23760000Y-68600000D03*
X22740000Y-68600000D03*
%TD*%
%TO.C,R77*%
X101460000Y-186200000D03*
X100440000Y-186200000D03*
%TD*%
%TO.C,R612*%
X90360000Y-60199999D03*
X89340000Y-60199999D03*
%TD*%
%TO.C,R607*%
X105160000Y-214200000D03*
X104140000Y-214200000D03*
%TD*%
D15*
%TO.C,C35*%
X282200000Y-79980000D03*
X282200000Y-79020000D03*
%TD*%
D17*
%TO.C,C98*%
X268025758Y-312100000D03*
X266125758Y-312100000D03*
%TD*%
D12*
%TO.C,R256*%
X16360000Y-46199999D03*
X15340000Y-46199999D03*
%TD*%
%TO.C,R442*%
X101460000Y-267399999D03*
X100440000Y-267399999D03*
%TD*%
%TO.C,R707*%
X168060000Y-102199999D03*
X167040000Y-102199999D03*
%TD*%
%TO.C,R139*%
X79260000Y-68600000D03*
X78240000Y-68600000D03*
%TD*%
%TO.C,R485*%
X138460000Y-93800000D03*
X137440000Y-93800000D03*
%TD*%
%TO.C,R204*%
X164360000Y-127399999D03*
X163340000Y-127399999D03*
%TD*%
%TO.C,R941*%
X64460000Y-121800000D03*
X63440000Y-121800000D03*
%TD*%
%TO.C,R751*%
X186560000Y-149799999D03*
X185540000Y-149799999D03*
%TD*%
%TO.C,R102*%
X23760000Y-40599999D03*
X22740000Y-40599999D03*
%TD*%
%TO.C,R792*%
X186560000Y-264600000D03*
X185540000Y-264600000D03*
%TD*%
D15*
%TO.C,C40*%
X282200000Y-97480000D03*
X282200000Y-96520000D03*
%TD*%
D12*
%TO.C,R922*%
X201360000Y-147000000D03*
X200340000Y-147000000D03*
%TD*%
D13*
%TO.C,C103*%
X101430000Y-214200000D03*
X100470000Y-214200000D03*
%TD*%
D12*
%TO.C,R385*%
X108860000Y-244999999D03*
X107840000Y-244999999D03*
%TD*%
%TO.C,R255*%
X105160000Y-250600000D03*
X104140000Y-250600000D03*
%TD*%
%TO.C,R336*%
X64460000Y-233799999D03*
X63440000Y-233799999D03*
%TD*%
%TO.C,R521*%
X138460000Y-211399999D03*
X137440000Y-211399999D03*
%TD*%
%TO.C,R752*%
X149560000Y-68600000D03*
X148540000Y-68600000D03*
%TD*%
%TO.C,R87*%
X53360000Y-166600000D03*
X52340000Y-166600000D03*
%TD*%
%TO.C,R8*%
X142160000Y-96600000D03*
X141140000Y-96600000D03*
%TD*%
%TO.C,R473*%
X186560000Y-54599999D03*
X185540000Y-54599999D03*
%TD*%
%TO.C,R7*%
X149560000Y-127399999D03*
X148540000Y-127399999D03*
%TD*%
%TO.C,R35*%
X108860000Y-236600000D03*
X107840000Y-236600000D03*
%TD*%
%TO.C,R407*%
X142160000Y-46199999D03*
X141140000Y-46199999D03*
%TD*%
D13*
%TO.C,C130*%
X179130000Y-256200000D03*
X178170000Y-256200000D03*
%TD*%
D12*
%TO.C,R78*%
X156960000Y-71400000D03*
X155940000Y-71400000D03*
%TD*%
%TO.C,R930*%
X197660000Y-169399999D03*
X196640000Y-169399999D03*
%TD*%
%TO.C,R373*%
X149560000Y-169399999D03*
X148540000Y-169399999D03*
%TD*%
%TO.C,R402*%
X97760000Y-205799999D03*
X96740000Y-205799999D03*
%TD*%
%TO.C,R571*%
X216160000Y-244999999D03*
X215140000Y-244999999D03*
%TD*%
%TO.C,R128*%
X145860000Y-169399999D03*
X144840000Y-169399999D03*
%TD*%
%TO.C,R31*%
X34860000Y-63000000D03*
X33840000Y-63000000D03*
%TD*%
%TO.C,R568*%
X86660000Y-169399999D03*
X85640000Y-169399999D03*
%TD*%
%TO.C,R165*%
X212460000Y-141399999D03*
X211440000Y-141399999D03*
%TD*%
%TO.C,R244*%
X86660000Y-71400000D03*
X85640000Y-71400000D03*
%TD*%
%TO.C,R252*%
X82960000Y-270200000D03*
X81940000Y-270200000D03*
%TD*%
%TO.C,R569*%
X90360000Y-26600000D03*
X89340000Y-26600000D03*
%TD*%
%TO.C,R34*%
X219860000Y-273000000D03*
X218840000Y-273000000D03*
%TD*%
%TO.C,R846*%
X264260000Y-102199999D03*
X263240000Y-102199999D03*
%TD*%
D15*
%TO.C,C57*%
X282200000Y-156980000D03*
X282200000Y-156020000D03*
%TD*%
D12*
%TO.C,R420*%
X108860000Y-68600000D03*
X107840000Y-68600000D03*
%TD*%
%TO.C,R800*%
X123660000Y-74199999D03*
X122640000Y-74199999D03*
%TD*%
%TO.C,R388*%
X168060000Y-261799999D03*
X167040000Y-261799999D03*
%TD*%
D15*
%TO.C,C9*%
X8500000Y-48480000D03*
X8500000Y-47520000D03*
%TD*%
D12*
%TO.C,R1067*%
X216160000Y-144200000D03*
X215140000Y-144200000D03*
%TD*%
%TO.C,R832*%
X138460000Y-65800000D03*
X137440000Y-65800000D03*
%TD*%
%TO.C,R415*%
X127360000Y-217000000D03*
X126340000Y-217000000D03*
%TD*%
%TO.C,R652*%
X101460000Y-158200000D03*
X100440000Y-158200000D03*
%TD*%
%TO.C,R961*%
X82960000Y-222600000D03*
X81940000Y-222600000D03*
%TD*%
%TO.C,R141*%
X182860000Y-222600000D03*
X181840000Y-222600000D03*
%TD*%
%TO.C,R63*%
X119960000Y-253399999D03*
X118940000Y-253399999D03*
%TD*%
%TO.C,R11*%
X230960000Y-96600000D03*
X229940000Y-96600000D03*
%TD*%
%TO.C,R19*%
X168060000Y-239399999D03*
X167040000Y-239399999D03*
%TD*%
%TO.C,R931*%
X138460000Y-46199999D03*
X137440000Y-46199999D03*
%TD*%
%TO.C,R646*%
X264260000Y-85399999D03*
X263240000Y-85399999D03*
%TD*%
%TO.C,R942*%
X260560000Y-105000000D03*
X259540000Y-105000000D03*
%TD*%
%TO.C,R222*%
X201360000Y-82600000D03*
X200340000Y-82600000D03*
%TD*%
%TO.C,R998*%
X101460000Y-141399999D03*
X100440000Y-141399999D03*
%TD*%
%TO.C,R747*%
X197660000Y-172200000D03*
X196640000Y-172200000D03*
%TD*%
%TO.C,R1031*%
X64460000Y-236600000D03*
X63440000Y-236600000D03*
%TD*%
%TO.C,R342*%
X160660000Y-138600000D03*
X159640000Y-138600000D03*
%TD*%
D15*
%TO.C,C20*%
X8500000Y-86980000D03*
X8500000Y-86020000D03*
%TD*%
D12*
%TO.C,R443*%
X193960000Y-63000000D03*
X192940000Y-63000000D03*
%TD*%
%TO.C,R89*%
X142160000Y-65800000D03*
X141140000Y-65800000D03*
%TD*%
D15*
%TO.C,C59*%
X282200000Y-163980000D03*
X282200000Y-163020000D03*
%TD*%
D12*
%TO.C,R641*%
X249460000Y-121800000D03*
X248440000Y-121800000D03*
%TD*%
%TO.C,R973*%
X64460000Y-270200000D03*
X63440000Y-270200000D03*
%TD*%
%TO.C,R1060*%
X164360000Y-200200000D03*
X163340000Y-200200000D03*
%TD*%
%TO.C,R862*%
X68160000Y-197399999D03*
X67140000Y-197399999D03*
%TD*%
D15*
%TO.C,C38*%
X282200000Y-90480000D03*
X282200000Y-89520000D03*
%TD*%
D12*
%TO.C,R23*%
X75560000Y-222600000D03*
X74540000Y-222600000D03*
%TD*%
%TO.C,R809*%
X119960000Y-287000000D03*
X118940000Y-287000000D03*
%TD*%
D13*
%TO.C,C125*%
X153230000Y-205799999D03*
X152270000Y-205799999D03*
%TD*%
D12*
%TO.C,R963*%
X79260000Y-71400000D03*
X78240000Y-71400000D03*
%TD*%
%TO.C,R561*%
X94060000Y-93800000D03*
X93040000Y-93800000D03*
%TD*%
%TO.C,R768*%
X86660000Y-79800000D03*
X85640000Y-79800000D03*
%TD*%
%TO.C,R363*%
X160660000Y-169399999D03*
X159640000Y-169399999D03*
%TD*%
%TO.C,R143*%
X223560000Y-88199999D03*
X222540000Y-88199999D03*
%TD*%
%TO.C,R645*%
X216160000Y-147000000D03*
X215140000Y-147000000D03*
%TD*%
%TO.C,R269*%
X175460000Y-270200000D03*
X174440000Y-270200000D03*
%TD*%
%TO.C,R630*%
X160660000Y-119000000D03*
X159640000Y-119000000D03*
%TD*%
%TO.C,R162*%
X112560000Y-222600000D03*
X111540000Y-222600000D03*
%TD*%
%TO.C,R478*%
X94060000Y-63000000D03*
X93040000Y-63000000D03*
%TD*%
%TO.C,R1029*%
X68160000Y-214200000D03*
X67140000Y-214200000D03*
%TD*%
%TO.C,R720*%
X142160000Y-273000000D03*
X141140000Y-273000000D03*
%TD*%
%TO.C,R213*%
X219860000Y-85399999D03*
X218840000Y-85399999D03*
%TD*%
%TO.C,R785*%
X108860000Y-278599999D03*
X107840000Y-278599999D03*
%TD*%
%TO.C,R265*%
X16360000Y-102199999D03*
X15340000Y-102199999D03*
%TD*%
%TO.C,R632*%
X79260000Y-63000000D03*
X78240000Y-63000000D03*
%TD*%
D15*
%TO.C,C12*%
X8500000Y-58980000D03*
X8500000Y-58020000D03*
%TD*%
D12*
%TO.C,R124*%
X223560000Y-214200000D03*
X222540000Y-214200000D03*
%TD*%
D13*
%TO.C,C153*%
X156930000Y-292599999D03*
X155970000Y-292599999D03*
%TD*%
D12*
%TO.C,R614*%
X131060000Y-172200000D03*
X130040000Y-172200000D03*
%TD*%
%TO.C,R722*%
X175460000Y-267399999D03*
X174440000Y-267399999D03*
%TD*%
D13*
%TO.C,C148*%
X31130000Y-289799999D03*
X30170000Y-289799999D03*
%TD*%
D12*
%TO.C,R309*%
X216160000Y-119000000D03*
X215140000Y-119000000D03*
%TD*%
D15*
%TO.C,C21*%
X8500000Y-90480000D03*
X8500000Y-89520000D03*
%TD*%
D12*
%TO.C,R947*%
X90360000Y-155399999D03*
X89340000Y-155399999D03*
%TD*%
%TO.C,R601*%
X175460000Y-186200000D03*
X174440000Y-186200000D03*
%TD*%
%TO.C,R54*%
X108860000Y-186200000D03*
X107840000Y-186200000D03*
%TD*%
%TO.C,R96*%
X49660000Y-261799999D03*
X48640000Y-261799999D03*
%TD*%
%TO.C,R567*%
X216160000Y-130199999D03*
X215140000Y-130199999D03*
%TD*%
%TO.C,R6*%
X142160000Y-205799999D03*
X141140000Y-205799999D03*
%TD*%
%TO.C,R988*%
X223560000Y-68600000D03*
X222540000Y-68600000D03*
%TD*%
%TO.C,R770*%
X193960000Y-169399999D03*
X192940000Y-169399999D03*
%TD*%
%TO.C,R856*%
X108860000Y-228200000D03*
X107840000Y-228200000D03*
%TD*%
%TO.C,R1022*%
X149560000Y-222600000D03*
X148540000Y-222600000D03*
%TD*%
%TO.C,R41*%
X49660000Y-65800000D03*
X48640000Y-65800000D03*
%TD*%
D13*
%TO.C,C156*%
X219830000Y-292599999D03*
X218870000Y-292599999D03*
%TD*%
D12*
%TO.C,R469*%
X112560000Y-85399999D03*
X111540000Y-85399999D03*
%TD*%
%TO.C,R578*%
X119960000Y-46199999D03*
X118940000Y-46199999D03*
%TD*%
%TO.C,R1050*%
X79260000Y-270200000D03*
X78240000Y-270200000D03*
%TD*%
%TO.C,R654*%
X20060000Y-57400000D03*
X19040000Y-57400000D03*
%TD*%
%TO.C,R891*%
X75560000Y-63000000D03*
X74540000Y-63000000D03*
%TD*%
D13*
%TO.C,C141*%
X34830000Y-189000000D03*
X33870000Y-189000000D03*
%TD*%
D12*
%TO.C,R610*%
X45960000Y-270200000D03*
X44940000Y-270200000D03*
%TD*%
%TO.C,R358*%
X94060000Y-102199999D03*
X93040000Y-102199999D03*
%TD*%
%TO.C,R353*%
X175460000Y-65800000D03*
X174440000Y-65800000D03*
%TD*%
%TO.C,R684*%
X116260000Y-239399999D03*
X115240000Y-239399999D03*
%TD*%
%TO.C,R681*%
X64460000Y-197399999D03*
X63440000Y-197399999D03*
%TD*%
%TO.C,R889*%
X64460000Y-208600000D03*
X63440000Y-208600000D03*
%TD*%
%TO.C,R69*%
X49660000Y-172200000D03*
X48640000Y-172200000D03*
%TD*%
%TO.C,R495*%
X253160000Y-29400000D03*
X252140000Y-29400000D03*
%TD*%
%TO.C,R1010*%
X193960000Y-26600000D03*
X192940000Y-26600000D03*
%TD*%
%TO.C,R805*%
X134760000Y-71400000D03*
X133740000Y-71400000D03*
%TD*%
%TO.C,R464*%
X219860000Y-141399999D03*
X218840000Y-141399999D03*
%TD*%
%TO.C,R995*%
X216160000Y-256200000D03*
X215140000Y-256200000D03*
%TD*%
%TO.C,R506*%
X164360000Y-172200000D03*
X163340000Y-172200000D03*
%TD*%
%TO.C,R208*%
X242060000Y-119000000D03*
X241040000Y-119000000D03*
%TD*%
%TO.C,R5*%
X79260000Y-166600000D03*
X78240000Y-166600000D03*
%TD*%
%TO.C,R144*%
X212460000Y-130199999D03*
X211440000Y-130199999D03*
%TD*%
%TO.C,R95*%
X101460000Y-273000000D03*
X100440000Y-273000000D03*
%TD*%
D16*
%TO.C,R1091*%
X39200000Y-143510000D03*
X39200000Y-142490000D03*
%TD*%
D12*
%TO.C,R890*%
X175460000Y-197399999D03*
X174440000Y-197399999D03*
%TD*%
%TO.C,R761*%
X171760000Y-169399999D03*
X170740000Y-169399999D03*
%TD*%
D15*
%TO.C,C91*%
X11800000Y-107980000D03*
X11800000Y-107020000D03*
%TD*%
D12*
%TO.C,R195*%
X105160000Y-68600000D03*
X104140000Y-68600000D03*
%TD*%
%TO.C,R617*%
X153260000Y-116199999D03*
X152240000Y-116199999D03*
%TD*%
%TO.C,R482*%
X179160000Y-222600000D03*
X178140000Y-222600000D03*
%TD*%
%TO.C,R1072*%
X242060000Y-155399999D03*
X241040000Y-155399999D03*
%TD*%
%TO.C,R3*%
X138460000Y-68600000D03*
X137440000Y-68600000D03*
%TD*%
%TO.C,R360*%
X234660000Y-63000000D03*
X233640000Y-63000000D03*
%TD*%
%TO.C,R1063*%
X168060000Y-236600000D03*
X167040000Y-236600000D03*
%TD*%
%TO.C,R1048*%
X79260000Y-247799999D03*
X78240000Y-247799999D03*
%TD*%
%TO.C,R1008*%
X64460000Y-133000000D03*
X63440000Y-133000000D03*
%TD*%
%TO.C,R755*%
X186560000Y-217000000D03*
X185540000Y-217000000D03*
%TD*%
%TO.C,R526*%
X131060000Y-287000000D03*
X130040000Y-287000000D03*
%TD*%
%TO.C,R553*%
X197660000Y-65800000D03*
X196640000Y-65800000D03*
%TD*%
D13*
%TO.C,C146*%
X31130000Y-259000000D03*
X30170000Y-259000000D03*
%TD*%
D12*
%TO.C,R1014*%
X149560000Y-250600000D03*
X148540000Y-250600000D03*
%TD*%
%TO.C,R629*%
X64460000Y-141399999D03*
X63440000Y-141399999D03*
%TD*%
%TO.C,R687*%
X216160000Y-284200000D03*
X215140000Y-284200000D03*
%TD*%
D13*
%TO.C,C102*%
X101430000Y-203000000D03*
X100470000Y-203000000D03*
%TD*%
D12*
%TO.C,R211*%
X186560000Y-253399999D03*
X185540000Y-253399999D03*
%TD*%
%TO.C,R736*%
X223560000Y-65800000D03*
X222540000Y-65800000D03*
%TD*%
D15*
%TO.C,C50*%
X282200000Y-132480000D03*
X282200000Y-131520000D03*
%TD*%
D12*
%TO.C,R73*%
X175460000Y-99399999D03*
X174440000Y-99399999D03*
%TD*%
%TO.C,R201*%
X131060000Y-259000000D03*
X130040000Y-259000000D03*
%TD*%
D13*
%TO.C,C143*%
X31130000Y-214200000D03*
X30170000Y-214200000D03*
%TD*%
D12*
%TO.C,R582*%
X123660000Y-99399999D03*
X122640000Y-99399999D03*
%TD*%
%TO.C,R426*%
X153260000Y-110600000D03*
X152240000Y-110600000D03*
%TD*%
%TO.C,R668*%
X267960000Y-158200000D03*
X266940000Y-158200000D03*
%TD*%
%TO.C,R1066*%
X164360000Y-270200000D03*
X163340000Y-270200000D03*
%TD*%
%TO.C,R85*%
X123660000Y-63000000D03*
X122640000Y-63000000D03*
%TD*%
%TO.C,R904*%
X57060000Y-222600000D03*
X56040000Y-222600000D03*
%TD*%
%TO.C,R515*%
X123660000Y-107800000D03*
X122640000Y-107800000D03*
%TD*%
%TO.C,R178*%
X242060000Y-147000000D03*
X241040000Y-147000000D03*
%TD*%
%TO.C,R542*%
X71860000Y-93800000D03*
X70840000Y-93800000D03*
%TD*%
%TO.C,R742*%
X49660000Y-236600000D03*
X48640000Y-236600000D03*
%TD*%
%TO.C,R381*%
X108860000Y-219799999D03*
X107840000Y-219799999D03*
%TD*%
%TO.C,R814*%
X149560000Y-261799999D03*
X148540000Y-261799999D03*
%TD*%
%TO.C,R101*%
X208760000Y-107800000D03*
X207740000Y-107800000D03*
%TD*%
D13*
%TO.C,C151*%
X97730000Y-292599999D03*
X96770000Y-292599999D03*
%TD*%
D12*
%TO.C,R894*%
X234660000Y-141399999D03*
X233640000Y-141399999D03*
%TD*%
%TO.C,R530*%
X219860000Y-93800000D03*
X218840000Y-93800000D03*
%TD*%
%TO.C,R872*%
X234660000Y-152600000D03*
X233640000Y-152600000D03*
%TD*%
%TO.C,R586*%
X49660000Y-68600000D03*
X48640000Y-68600000D03*
%TD*%
%TO.C,R677*%
X253160000Y-43400000D03*
X252140000Y-43400000D03*
%TD*%
%TO.C,R746*%
X160660000Y-63000000D03*
X159640000Y-63000000D03*
%TD*%
%TO.C,R444*%
X145860000Y-242200000D03*
X144840000Y-242200000D03*
%TD*%
%TO.C,R308*%
X186560000Y-88199999D03*
X185540000Y-88199999D03*
%TD*%
%TO.C,R1042*%
X60760000Y-270200000D03*
X59740000Y-270200000D03*
%TD*%
%TO.C,R103*%
X205060000Y-91000000D03*
X204040000Y-91000000D03*
%TD*%
%TO.C,R688*%
X186560000Y-133000000D03*
X185540000Y-133000000D03*
%TD*%
%TO.C,R40*%
X127360000Y-172200000D03*
X126340000Y-172200000D03*
%TD*%
%TO.C,R234*%
X182860000Y-247799999D03*
X181840000Y-247799999D03*
%TD*%
%TO.C,R803*%
X112560000Y-65800000D03*
X111540000Y-65800000D03*
%TD*%
D15*
%TO.C,C67*%
X11800000Y-23980000D03*
X11800000Y-23020000D03*
%TD*%
D12*
%TO.C,R1016*%
X145860000Y-68600000D03*
X144840000Y-68600000D03*
%TD*%
D17*
%TO.C,C97*%
X264425758Y-314200000D03*
X262525758Y-314200000D03*
%TD*%
D12*
%TO.C,R1058*%
X193960000Y-267399999D03*
X192940000Y-267399999D03*
%TD*%
D13*
%TO.C,C117*%
X131030000Y-186200000D03*
X130070000Y-186200000D03*
%TD*%
D12*
%TO.C,R106*%
X138460000Y-54599999D03*
X137440000Y-54599999D03*
%TD*%
%TO.C,R917*%
X82960000Y-163799999D03*
X81940000Y-163799999D03*
%TD*%
%TO.C,R564*%
X45960000Y-214200000D03*
X44940000Y-214200000D03*
%TD*%
%TO.C,R733*%
X86660000Y-166600000D03*
X85640000Y-166600000D03*
%TD*%
D13*
%TO.C,C126*%
X156930000Y-217000000D03*
X155970000Y-217000000D03*
%TD*%
D12*
%TO.C,R458*%
X168060000Y-121800000D03*
X167040000Y-121800000D03*
%TD*%
%TO.C,R715*%
X112560000Y-259000000D03*
X111540000Y-259000000D03*
%TD*%
%TO.C,R811*%
X82960000Y-149799999D03*
X81940000Y-149799999D03*
%TD*%
%TO.C,R466*%
X186560000Y-211399999D03*
X185540000Y-211399999D03*
%TD*%
%TO.C,R611*%
X234660000Y-172200000D03*
X233640000Y-172200000D03*
%TD*%
%TO.C,R150*%
X186560000Y-65800000D03*
X185540000Y-65800000D03*
%TD*%
%TO.C,R855*%
X175460000Y-287000000D03*
X174440000Y-287000000D03*
%TD*%
D15*
%TO.C,C29*%
X8500000Y-146480000D03*
X8500000Y-145520000D03*
%TD*%
D12*
%TO.C,R950*%
X219860000Y-186200000D03*
X218840000Y-186200000D03*
%TD*%
%TO.C,R625*%
X138460000Y-172200000D03*
X137440000Y-172200000D03*
%TD*%
%TO.C,R185*%
X105160000Y-233799999D03*
X104140000Y-233799999D03*
%TD*%
%TO.C,R911*%
X68160000Y-222600000D03*
X67140000Y-222600000D03*
%TD*%
%TO.C,R706*%
X186560000Y-228200000D03*
X185540000Y-228200000D03*
%TD*%
%TO.C,R979*%
X97760000Y-105000000D03*
X96740000Y-105000000D03*
%TD*%
D13*
%TO.C,C150*%
X75530000Y-292599999D03*
X74570000Y-292599999D03*
%TD*%
D12*
%TO.C,R689*%
X223560000Y-85399999D03*
X222540000Y-85399999D03*
%TD*%
D14*
%TO.C,D56*%
X118659940Y-9900000D03*
X116559940Y-9900000D03*
%TD*%
D15*
%TO.C,C52*%
X282200000Y-139480000D03*
X282200000Y-138520000D03*
%TD*%
D12*
%TO.C,R549*%
X267960000Y-82600000D03*
X266940000Y-82600000D03*
%TD*%
%TO.C,R1039*%
X60760000Y-233799999D03*
X59740000Y-233799999D03*
%TD*%
%TO.C,R859*%
X53360000Y-287000000D03*
X52340000Y-287000000D03*
%TD*%
%TO.C,R125*%
X90360000Y-172200000D03*
X89340000Y-172200000D03*
%TD*%
%TO.C,R758*%
X131060000Y-250600000D03*
X130040000Y-250600000D03*
%TD*%
%TO.C,R647*%
X97760000Y-259000000D03*
X96740000Y-259000000D03*
%TD*%
D15*
%TO.C,C69*%
X11800000Y-30980000D03*
X11800000Y-30020000D03*
%TD*%
%TO.C,C74*%
X11800000Y-48480000D03*
X11800000Y-47520000D03*
%TD*%
D12*
%TO.C,R907*%
X175460000Y-135800000D03*
X174440000Y-135800000D03*
%TD*%
%TO.C,R591*%
X145860000Y-93800000D03*
X144840000Y-93800000D03*
%TD*%
%TO.C,R535*%
X219860000Y-65800000D03*
X218840000Y-65800000D03*
%TD*%
%TO.C,R395*%
X142160000Y-85399999D03*
X141140000Y-85399999D03*
%TD*%
%TO.C,R90*%
X90360000Y-287000000D03*
X89340000Y-287000000D03*
%TD*%
%TO.C,R851*%
X227260000Y-158200000D03*
X226240000Y-158200000D03*
%TD*%
%TO.C,R843*%
X227260000Y-130199999D03*
X226240000Y-130199999D03*
%TD*%
%TO.C,R991*%
X171760000Y-23799999D03*
X170740000Y-23799999D03*
%TD*%
D15*
%TO.C,C94*%
X11800000Y-146480000D03*
X11800000Y-145520000D03*
%TD*%
D12*
%TO.C,R173*%
X223560000Y-203000000D03*
X222540000Y-203000000D03*
%TD*%
%TO.C,R869*%
X138460000Y-63000000D03*
X137440000Y-63000000D03*
%TD*%
D14*
%TO.C,D67*%
X244156950Y-12000000D03*
X242056950Y-12000000D03*
%TD*%
D12*
%TO.C,R714*%
X108860000Y-147000000D03*
X107840000Y-147000000D03*
%TD*%
%TO.C,R1017*%
X168060000Y-191799999D03*
X167040000Y-191799999D03*
%TD*%
%TO.C,R943*%
X256860000Y-121800000D03*
X255840000Y-121800000D03*
%TD*%
D15*
%TO.C,C70*%
X11800000Y-34480000D03*
X11800000Y-33520000D03*
%TD*%
D12*
%TO.C,R649*%
X149560000Y-63000000D03*
X148540000Y-63000000D03*
%TD*%
%TO.C,R692*%
X245760000Y-71400000D03*
X244740000Y-71400000D03*
%TD*%
%TO.C,R156*%
X79260000Y-116199999D03*
X78240000Y-116199999D03*
%TD*%
%TO.C,R1028*%
X68160000Y-203000000D03*
X67140000Y-203000000D03*
%TD*%
%TO.C,R776*%
X212460000Y-65800000D03*
X211440000Y-65800000D03*
%TD*%
%TO.C,R280*%
X20060000Y-37800000D03*
X19040000Y-37800000D03*
%TD*%
%TO.C,R179*%
X105160000Y-93800000D03*
X104140000Y-93800000D03*
%TD*%
%TO.C,R154*%
X145860000Y-244999999D03*
X144840000Y-244999999D03*
%TD*%
%TO.C,R778*%
X260560000Y-99399999D03*
X259540000Y-99399999D03*
%TD*%
%TO.C,R723*%
X171760000Y-65800000D03*
X170740000Y-65800000D03*
%TD*%
%TO.C,R231*%
X90360000Y-93800000D03*
X89340000Y-93800000D03*
%TD*%
%TO.C,R4*%
X149560000Y-191799999D03*
X148540000Y-191799999D03*
%TD*%
%TO.C,R486*%
X68160000Y-149799999D03*
X67140000Y-149799999D03*
%TD*%
D13*
%TO.C,C132*%
X182830000Y-275800000D03*
X181870000Y-275800000D03*
%TD*%
D12*
%TO.C,R903*%
X105160000Y-194600000D03*
X104140000Y-194600000D03*
%TD*%
%TO.C,R956*%
X71860000Y-63000000D03*
X70840000Y-63000000D03*
%TD*%
%TO.C,R207*%
X138460000Y-71400000D03*
X137440000Y-71400000D03*
%TD*%
%TO.C,R291*%
X112560000Y-247799999D03*
X111540000Y-247799999D03*
%TD*%
%TO.C,R919*%
X97760000Y-166600000D03*
X96740000Y-166600000D03*
%TD*%
%TO.C,R424*%
X64460000Y-127399999D03*
X63440000Y-127399999D03*
%TD*%
%TO.C,R560*%
X182860000Y-102199999D03*
X181840000Y-102199999D03*
%TD*%
D14*
%TO.C,D57*%
X118659940Y-12000000D03*
X116559940Y-12000000D03*
%TD*%
%TO.C,D63*%
X87517119Y-12000000D03*
X85417119Y-12000000D03*
%TD*%
D12*
%TO.C,R248*%
X123660000Y-256200000D03*
X122640000Y-256200000D03*
%TD*%
%TO.C,R775*%
X16360000Y-91000000D03*
X15340000Y-91000000D03*
%TD*%
%TO.C,R547*%
X193960000Y-91000000D03*
X192940000Y-91000000D03*
%TD*%
%TO.C,R532*%
X145860000Y-71400000D03*
X144840000Y-71400000D03*
%TD*%
%TO.C,R394*%
X256860000Y-102199999D03*
X255840000Y-102199999D03*
%TD*%
%TO.C,R774*%
X71860000Y-99399999D03*
X70840000Y-99399999D03*
%TD*%
%TO.C,R492*%
X156960000Y-144200000D03*
X155940000Y-144200000D03*
%TD*%
%TO.C,R337*%
X238360000Y-166600000D03*
X237340000Y-166600000D03*
%TD*%
%TO.C,R55*%
X105160000Y-172200000D03*
X104140000Y-172200000D03*
%TD*%
%TO.C,R658*%
X145860000Y-222600000D03*
X144840000Y-222600000D03*
%TD*%
%TO.C,R81*%
X86660000Y-133000000D03*
X85640000Y-133000000D03*
%TD*%
D16*
%TO.C,R1108*%
X52000000Y-146910000D03*
X52000000Y-145890000D03*
%TD*%
D12*
%TO.C,R806*%
X90360000Y-144200000D03*
X89340000Y-144200000D03*
%TD*%
%TO.C,R425*%
X227260000Y-186200000D03*
X226240000Y-186200000D03*
%TD*%
%TO.C,R660*%
X97760000Y-130199999D03*
X96740000Y-130199999D03*
%TD*%
%TO.C,R984*%
X45960000Y-68600000D03*
X44940000Y-68600000D03*
%TD*%
%TO.C,R772*%
X105160000Y-191799999D03*
X104140000Y-191799999D03*
%TD*%
D16*
%TO.C,R1086*%
X23200000Y-143510000D03*
X23200000Y-142490000D03*
%TD*%
D12*
%TO.C,R111*%
X86660000Y-68600000D03*
X85640000Y-68600000D03*
%TD*%
%TO.C,R249*%
X149560000Y-214200000D03*
X148540000Y-214200000D03*
%TD*%
%TO.C,R15*%
X112560000Y-211399999D03*
X111540000Y-211399999D03*
%TD*%
D14*
%TO.C,D59*%
X47542798Y-12000000D03*
X45442798Y-12000000D03*
%TD*%
D12*
%TO.C,R310*%
X186560000Y-208600000D03*
X185540000Y-208600000D03*
%TD*%
D15*
%TO.C,C14*%
X8500000Y-65980000D03*
X8500000Y-65020000D03*
%TD*%
D12*
%TO.C,R429*%
X134760000Y-203000000D03*
X133740000Y-203000000D03*
%TD*%
%TO.C,R142*%
X238360000Y-175000000D03*
X237340000Y-175000000D03*
%TD*%
%TO.C,R357*%
X123660000Y-35000000D03*
X122640000Y-35000000D03*
%TD*%
%TO.C,R628*%
X190260000Y-68600000D03*
X189240000Y-68600000D03*
%TD*%
%TO.C,R600*%
X145860000Y-197399999D03*
X144840000Y-197399999D03*
%TD*%
%TO.C,R263*%
X164360000Y-155399999D03*
X163340000Y-155399999D03*
%TD*%
%TO.C,R847*%
X131060000Y-91000000D03*
X130040000Y-91000000D03*
%TD*%
%TO.C,R188*%
X112560000Y-29400000D03*
X111540000Y-29400000D03*
%TD*%
%TO.C,R318*%
X197660000Y-60199999D03*
X196640000Y-60199999D03*
%TD*%
%TO.C,R502*%
X64460000Y-93800000D03*
X63440000Y-93800000D03*
%TD*%
%TO.C,R279*%
X156960000Y-141399999D03*
X155940000Y-141399999D03*
%TD*%
%TO.C,R908*%
X175460000Y-172200000D03*
X174440000Y-172200000D03*
%TD*%
%TO.C,R189*%
X131060000Y-247799999D03*
X130040000Y-247799999D03*
%TD*%
%TO.C,R43*%
X119960000Y-228200000D03*
X118940000Y-228200000D03*
%TD*%
%TO.C,R59*%
X171760000Y-200200000D03*
X170740000Y-200200000D03*
%TD*%
D15*
%TO.C,C87*%
X11800000Y-93980000D03*
X11800000Y-93020000D03*
%TD*%
D12*
%TO.C,R804*%
X23760000Y-71400000D03*
X22740000Y-71400000D03*
%TD*%
%TO.C,R558*%
X186560000Y-186200000D03*
X185540000Y-186200000D03*
%TD*%
%TO.C,R497*%
X138460000Y-236600000D03*
X137440000Y-236600000D03*
%TD*%
%TO.C,R146*%
X160660000Y-172200000D03*
X159640000Y-172200000D03*
%TD*%
D15*
%TO.C,C24*%
X8500000Y-100980000D03*
X8500000Y-100020000D03*
%TD*%
D12*
%TO.C,R316*%
X175460000Y-242200000D03*
X174440000Y-242200000D03*
%TD*%
%TO.C,R606*%
X105160000Y-197399999D03*
X104140000Y-197399999D03*
%TD*%
%TO.C,R470*%
X82960000Y-88199999D03*
X81940000Y-88199999D03*
%TD*%
%TO.C,R98*%
X171760000Y-110600000D03*
X170740000Y-110600000D03*
%TD*%
%TO.C,R33*%
X264260000Y-121800000D03*
X263240000Y-121800000D03*
%TD*%
%TO.C,R170*%
X160660000Y-68600000D03*
X159640000Y-68600000D03*
%TD*%
%TO.C,R824*%
X108860000Y-158200000D03*
X107840000Y-158200000D03*
%TD*%
%TO.C,R683*%
X149560000Y-287000000D03*
X148540000Y-287000000D03*
%TD*%
%TO.C,R909*%
X57060000Y-236600000D03*
X56040000Y-236600000D03*
%TD*%
%TO.C,R771*%
X253160000Y-121800000D03*
X252140000Y-121800000D03*
%TD*%
%TO.C,R198*%
X256860000Y-46199999D03*
X255840000Y-46199999D03*
%TD*%
%TO.C,R749*%
X127360000Y-68600000D03*
X126340000Y-68600000D03*
%TD*%
%TO.C,R440*%
X219860000Y-203000000D03*
X218840000Y-203000000D03*
%TD*%
%TO.C,R49*%
X238360000Y-155399999D03*
X237340000Y-155399999D03*
%TD*%
%TO.C,R329*%
X127360000Y-105000000D03*
X126340000Y-105000000D03*
%TD*%
%TO.C,R36*%
X131060000Y-99399999D03*
X130040000Y-99399999D03*
%TD*%
%TO.C,R25*%
X145860000Y-191799999D03*
X144840000Y-191799999D03*
%TD*%
D15*
%TO.C,C1*%
X8500000Y-20480000D03*
X8500000Y-19520000D03*
%TD*%
%TO.C,C90*%
X11800000Y-104480000D03*
X11800000Y-103520000D03*
%TD*%
D12*
%TO.C,R343*%
X116260000Y-79800000D03*
X115240000Y-79800000D03*
%TD*%
%TO.C,R384*%
X149560000Y-130199999D03*
X148540000Y-130199999D03*
%TD*%
%TO.C,R510*%
X175460000Y-133000000D03*
X174440000Y-133000000D03*
%TD*%
D16*
%TO.C,R1088*%
X29600000Y-143510000D03*
X29600000Y-142490000D03*
%TD*%
D12*
%TO.C,R362*%
X175460000Y-264600000D03*
X174440000Y-264600000D03*
%TD*%
%TO.C,R350*%
X227260000Y-267399999D03*
X226240000Y-267399999D03*
%TD*%
%TO.C,R505*%
X101460000Y-121800000D03*
X100440000Y-121800000D03*
%TD*%
%TO.C,R967*%
X190260000Y-222600000D03*
X189240000Y-222600000D03*
%TD*%
%TO.C,R456*%
X190260000Y-147000000D03*
X189240000Y-147000000D03*
%TD*%
D15*
%TO.C,C2*%
X8500000Y-23980000D03*
X8500000Y-23020000D03*
%TD*%
D12*
%TO.C,R797*%
X127360000Y-63000000D03*
X126340000Y-63000000D03*
%TD*%
%TO.C,R447*%
X116260000Y-250600000D03*
X115240000Y-250600000D03*
%TD*%
%TO.C,R474*%
X94060000Y-158200000D03*
X93040000Y-158200000D03*
%TD*%
D15*
%TO.C,C85*%
X11800000Y-86980000D03*
X11800000Y-86020000D03*
%TD*%
D12*
%TO.C,R623*%
X249460000Y-152600000D03*
X248440000Y-152600000D03*
%TD*%
%TO.C,R782*%
X112560000Y-107800000D03*
X111540000Y-107800000D03*
%TD*%
%TO.C,R815*%
X49660000Y-60199999D03*
X48640000Y-60199999D03*
%TD*%
%TO.C,R1071*%
X212460000Y-161000000D03*
X211440000Y-161000000D03*
%TD*%
%TO.C,R1084*%
X195573866Y-7800000D03*
X194553866Y-7800000D03*
%TD*%
%TO.C,R727*%
X168060000Y-107800000D03*
X167040000Y-107800000D03*
%TD*%
D15*
%TO.C,C72*%
X11800000Y-41480000D03*
X11800000Y-40520000D03*
%TD*%
D12*
%TO.C,R949*%
X142160000Y-169399999D03*
X141140000Y-169399999D03*
%TD*%
%TO.C,R325*%
X75560000Y-169399999D03*
X74540000Y-169399999D03*
%TD*%
%TO.C,R552*%
X116260000Y-155399999D03*
X115240000Y-155399999D03*
%TD*%
%TO.C,R518*%
X68160000Y-273000000D03*
X67140000Y-273000000D03*
%TD*%
%TO.C,R258*%
X190260000Y-91000000D03*
X189240000Y-91000000D03*
%TD*%
%TO.C,R97*%
X131060000Y-65800000D03*
X130040000Y-65800000D03*
%TD*%
D13*
%TO.C,C119*%
X127330000Y-205799999D03*
X126370000Y-205799999D03*
%TD*%
D12*
%TO.C,R93*%
X108860000Y-259000000D03*
X107840000Y-259000000D03*
%TD*%
%TO.C,R838*%
X142160000Y-77000000D03*
X141140000Y-77000000D03*
%TD*%
%TO.C,R508*%
X242060000Y-96600000D03*
X241040000Y-96600000D03*
%TD*%
%TO.C,R741*%
X175460000Y-144200000D03*
X174440000Y-144200000D03*
%TD*%
%TO.C,R300*%
X175460000Y-247799999D03*
X174440000Y-247799999D03*
%TD*%
%TO.C,R480*%
X119960000Y-275800000D03*
X118940000Y-275800000D03*
%TD*%
%TO.C,R807*%
X153260000Y-236600000D03*
X152240000Y-236600000D03*
%TD*%
%TO.C,R452*%
X127360000Y-273000000D03*
X126340000Y-273000000D03*
%TD*%
D14*
%TO.C,D65*%
X192713866Y-12000000D03*
X190613866Y-12000000D03*
%TD*%
D12*
%TO.C,R599*%
X182860000Y-172200000D03*
X181840000Y-172200000D03*
%TD*%
%TO.C,R340*%
X119960000Y-250600000D03*
X118940000Y-250600000D03*
%TD*%
D15*
%TO.C,C96*%
X11800000Y-153480000D03*
X11800000Y-152520000D03*
%TD*%
D12*
%TO.C,R371*%
X68160000Y-166600000D03*
X67140000Y-166600000D03*
%TD*%
%TO.C,R901*%
X49660000Y-214200000D03*
X48640000Y-214200000D03*
%TD*%
%TO.C,R257*%
X138460000Y-219799999D03*
X137440000Y-219799999D03*
%TD*%
%TO.C,R159*%
X68160000Y-68600000D03*
X67140000Y-68600000D03*
%TD*%
%TO.C,R694*%
X186560000Y-200200000D03*
X185540000Y-200200000D03*
%TD*%
%TO.C,R272*%
X182860000Y-65800000D03*
X181840000Y-65800000D03*
%TD*%
%TO.C,R1080*%
X121519940Y-7800000D03*
X120499940Y-7800000D03*
%TD*%
%TO.C,R756*%
X108860000Y-172200000D03*
X107840000Y-172200000D03*
%TD*%
%TO.C,R51*%
X260560000Y-121800000D03*
X259540000Y-121800000D03*
%TD*%
%TO.C,R669*%
X219860000Y-256200000D03*
X218840000Y-256200000D03*
%TD*%
%TO.C,R240*%
X79260000Y-158200000D03*
X78240000Y-158200000D03*
%TD*%
%TO.C,R1032*%
X68160000Y-250600000D03*
X67140000Y-250600000D03*
%TD*%
%TO.C,R940*%
X242060000Y-177799999D03*
X241040000Y-177799999D03*
%TD*%
%TO.C,R378*%
X160660000Y-96600000D03*
X159640000Y-96600000D03*
%TD*%
%TO.C,R679*%
X138460000Y-244999999D03*
X137440000Y-244999999D03*
%TD*%
%TO.C,R314*%
X145860000Y-23799999D03*
X144840000Y-23799999D03*
%TD*%
%TO.C,R129*%
X238360000Y-105000000D03*
X237340000Y-105000000D03*
%TD*%
%TO.C,R435*%
X60760000Y-247799999D03*
X59740000Y-247799999D03*
%TD*%
%TO.C,R140*%
X53360000Y-68600000D03*
X52340000Y-68600000D03*
%TD*%
%TO.C,R969*%
X219860000Y-214200000D03*
X218840000Y-214200000D03*
%TD*%
%TO.C,R697*%
X234660000Y-163799999D03*
X233640000Y-163799999D03*
%TD*%
%TO.C,R203*%
X119960000Y-270200000D03*
X118940000Y-270200000D03*
%TD*%
D15*
%TO.C,C4*%
X8500000Y-30980000D03*
X8500000Y-30020000D03*
%TD*%
D12*
%TO.C,R737*%
X190260000Y-189000000D03*
X189240000Y-189000000D03*
%TD*%
%TO.C,R924*%
X149560000Y-203000000D03*
X148540000Y-203000000D03*
%TD*%
D13*
%TO.C,C154*%
X175430000Y-292599999D03*
X174470000Y-292599999D03*
%TD*%
D12*
%TO.C,R514*%
X16360000Y-82600000D03*
X15340000Y-82600000D03*
%TD*%
%TO.C,R270*%
X216160000Y-219799999D03*
X215140000Y-219799999D03*
%TD*%
%TO.C,R531*%
X68160000Y-208600000D03*
X67140000Y-208600000D03*
%TD*%
%TO.C,R298*%
X212460000Y-289799999D03*
X211440000Y-289799999D03*
%TD*%
%TO.C,R682*%
X105160000Y-158200000D03*
X104140000Y-158200000D03*
%TD*%
%TO.C,R663*%
X86660000Y-96600000D03*
X85640000Y-96600000D03*
%TD*%
%TO.C,R463*%
X97760000Y-144200000D03*
X96740000Y-144200000D03*
%TD*%
%TO.C,R837*%
X34860000Y-26600000D03*
X33840000Y-26600000D03*
%TD*%
%TO.C,R867*%
X175460000Y-152600000D03*
X174440000Y-152600000D03*
%TD*%
%TO.C,R148*%
X127360000Y-65800000D03*
X126340000Y-65800000D03*
%TD*%
%TO.C,R676*%
X112560000Y-121800000D03*
X111540000Y-121800000D03*
%TD*%
%TO.C,R253*%
X182860000Y-113399999D03*
X181840000Y-113399999D03*
%TD*%
D15*
%TO.C,C61*%
X282200000Y-170980000D03*
X282200000Y-170020000D03*
%TD*%
D12*
%TO.C,R117*%
X227260000Y-197399999D03*
X226240000Y-197399999D03*
%TD*%
D15*
%TO.C,C11*%
X8500000Y-55480000D03*
X8500000Y-54520000D03*
%TD*%
D12*
%TO.C,R793*%
X97760000Y-270200000D03*
X96740000Y-270200000D03*
%TD*%
%TO.C,R1062*%
X164360000Y-222600000D03*
X163340000Y-222600000D03*
%TD*%
D15*
%TO.C,C32*%
X8500000Y-156980000D03*
X8500000Y-156020000D03*
%TD*%
D12*
%TO.C,R597*%
X105160000Y-217000000D03*
X104140000Y-217000000D03*
%TD*%
D15*
%TO.C,C23*%
X8500000Y-97480000D03*
X8500000Y-96520000D03*
%TD*%
%TO.C,C8*%
X8500000Y-44980000D03*
X8500000Y-44020000D03*
%TD*%
D12*
%TO.C,R657*%
X49660000Y-189000000D03*
X48640000Y-189000000D03*
%TD*%
%TO.C,R181*%
X260560000Y-93800000D03*
X259540000Y-93800000D03*
%TD*%
%TO.C,R80*%
X134760000Y-250600000D03*
X133740000Y-250600000D03*
%TD*%
%TO.C,R852*%
X234660000Y-65800000D03*
X233640000Y-65800000D03*
%TD*%
%TO.C,R404*%
X57060000Y-175000000D03*
X56040000Y-175000000D03*
%TD*%
%TO.C,R281*%
X108860000Y-110600000D03*
X107840000Y-110600000D03*
%TD*%
%TO.C,R726*%
X245760000Y-113399999D03*
X244740000Y-113399999D03*
%TD*%
%TO.C,R999*%
X101460000Y-211399999D03*
X100440000Y-211399999D03*
%TD*%
%TO.C,R1078*%
X192173866Y-7800000D03*
X191153866Y-7800000D03*
%TD*%
%TO.C,R84*%
X164360000Y-79800000D03*
X163340000Y-79800000D03*
%TD*%
D15*
%TO.C,C78*%
X11800000Y-62480000D03*
X11800000Y-61520000D03*
%TD*%
D12*
%TO.C,R484*%
X201360000Y-107800000D03*
X200340000Y-107800000D03*
%TD*%
%TO.C,R135*%
X219860000Y-244999999D03*
X218840000Y-244999999D03*
%TD*%
%TO.C,R900*%
X182860000Y-183399999D03*
X181840000Y-183399999D03*
%TD*%
%TO.C,R642*%
X260560000Y-107800000D03*
X259540000Y-107800000D03*
%TD*%
%TO.C,R585*%
X75560000Y-189000000D03*
X74540000Y-189000000D03*
%TD*%
%TO.C,R765*%
X227260000Y-172200000D03*
X226240000Y-172200000D03*
%TD*%
D15*
%TO.C,C27*%
X8500000Y-139480000D03*
X8500000Y-138520000D03*
%TD*%
D12*
%TO.C,R653*%
X134760000Y-113399999D03*
X133740000Y-113399999D03*
%TD*%
D15*
%TO.C,C81*%
X11800000Y-72980000D03*
X11800000Y-72020000D03*
%TD*%
%TO.C,C64*%
X282200000Y-230480000D03*
X282200000Y-229520000D03*
%TD*%
D12*
%TO.C,R1005*%
X68160000Y-200200000D03*
X67140000Y-200200000D03*
%TD*%
%TO.C,R725*%
X179160000Y-270200000D03*
X178140000Y-270200000D03*
%TD*%
%TO.C,R925*%
X112560000Y-172200000D03*
X111540000Y-172200000D03*
%TD*%
%TO.C,R1000*%
X68160000Y-211399999D03*
X67140000Y-211399999D03*
%TD*%
%TO.C,R465*%
X112560000Y-102199999D03*
X111540000Y-102199999D03*
%TD*%
%TO.C,R1015*%
X223560000Y-250600000D03*
X222540000Y-250600000D03*
%TD*%
%TO.C,R711*%
X64460000Y-180600000D03*
X63440000Y-180600000D03*
%TD*%
D16*
%TO.C,R1098*%
X20000000Y-146910000D03*
X20000000Y-145890000D03*
%TD*%
D12*
%TO.C,R686*%
X160660000Y-214200000D03*
X159640000Y-214200000D03*
%TD*%
%TO.C,R948*%
X264260000Y-141399999D03*
X263240000Y-141399999D03*
%TD*%
%TO.C,R397*%
X116260000Y-110600000D03*
X115240000Y-110600000D03*
%TD*%
%TO.C,R254*%
X108860000Y-200200000D03*
X107840000Y-200200000D03*
%TD*%
%TO.C,R389*%
X60760000Y-236600000D03*
X59740000Y-236600000D03*
%TD*%
%TO.C,R729*%
X123660000Y-231000000D03*
X122640000Y-231000000D03*
%TD*%
%TO.C,R764*%
X86660000Y-287000000D03*
X85640000Y-287000000D03*
%TD*%
%TO.C,R220*%
X256860000Y-99399999D03*
X255840000Y-99399999D03*
%TD*%
%TO.C,R678*%
X16360000Y-96600000D03*
X15340000Y-96600000D03*
%TD*%
D15*
%TO.C,C41*%
X282200000Y-100980000D03*
X282200000Y-100020000D03*
%TD*%
D16*
%TO.C,R1109*%
X55200000Y-146910000D03*
X55200000Y-145890000D03*
%TD*%
D12*
%TO.C,R944*%
X197660000Y-63000000D03*
X196640000Y-63000000D03*
%TD*%
%TO.C,R432*%
X68160000Y-259000000D03*
X67140000Y-259000000D03*
%TD*%
%TO.C,R61*%
X101460000Y-119000000D03*
X100440000Y-119000000D03*
%TD*%
%TO.C,R650*%
X64460000Y-130199999D03*
X63440000Y-130199999D03*
%TD*%
%TO.C,R20*%
X116260000Y-127399999D03*
X115240000Y-127399999D03*
%TD*%
%TO.C,R605*%
X253160000Y-96600000D03*
X252140000Y-96600000D03*
%TD*%
%TO.C,R334*%
X149560000Y-239399999D03*
X148540000Y-239399999D03*
%TD*%
%TO.C,R1061*%
X168060000Y-211399999D03*
X167040000Y-211399999D03*
%TD*%
%TO.C,R467*%
X75560000Y-68600000D03*
X74540000Y-68600000D03*
%TD*%
%TO.C,R160*%
X153260000Y-121800000D03*
X152240000Y-121800000D03*
%TD*%
%TO.C,R981*%
X153260000Y-225399999D03*
X152240000Y-225399999D03*
%TD*%
%TO.C,R596*%
X116260000Y-119000000D03*
X115240000Y-119000000D03*
%TD*%
%TO.C,R105*%
X108860000Y-211399999D03*
X107840000Y-211399999D03*
%TD*%
%TO.C,R619*%
X205060000Y-105000000D03*
X204040000Y-105000000D03*
%TD*%
%TO.C,R960*%
X168060000Y-149799999D03*
X167040000Y-149799999D03*
%TD*%
%TO.C,R928*%
X68160000Y-270200000D03*
X67140000Y-270200000D03*
%TD*%
%TO.C,R784*%
X219860000Y-233799999D03*
X218840000Y-233799999D03*
%TD*%
%TO.C,R858*%
X97760000Y-65800000D03*
X96740000Y-65800000D03*
%TD*%
%TO.C,R870*%
X219860000Y-250600000D03*
X218840000Y-250600000D03*
%TD*%
%TO.C,R290*%
X68160000Y-233799999D03*
X67140000Y-233799999D03*
%TD*%
%TO.C,R651*%
X219860000Y-239399999D03*
X218840000Y-239399999D03*
%TD*%
%TO.C,R640*%
X153260000Y-65800000D03*
X152240000Y-65800000D03*
%TD*%
%TO.C,R1070*%
X227260000Y-149799999D03*
X226240000Y-149799999D03*
%TD*%
%TO.C,R695*%
X142160000Y-63000000D03*
X141140000Y-63000000D03*
%TD*%
%TO.C,R504*%
X253160000Y-161000000D03*
X252140000Y-161000000D03*
%TD*%
%TO.C,R483*%
X142160000Y-247799999D03*
X141140000Y-247799999D03*
%TD*%
D13*
%TO.C,C145*%
X31130000Y-244999999D03*
X30170000Y-244999999D03*
%TD*%
D12*
%TO.C,R29*%
X208760000Y-68600000D03*
X207740000Y-68600000D03*
%TD*%
%TO.C,R354*%
X145860000Y-88199999D03*
X144840000Y-88199999D03*
%TD*%
D13*
%TO.C,C122*%
X142130000Y-242200000D03*
X141170000Y-242200000D03*
%TD*%
D12*
%TO.C,R728*%
X108860000Y-267399999D03*
X107840000Y-267399999D03*
%TD*%
%TO.C,R490*%
X131060000Y-74199999D03*
X130040000Y-74199999D03*
%TD*%
%TO.C,R274*%
X219860000Y-219799999D03*
X218840000Y-219799999D03*
%TD*%
%TO.C,R261*%
X175460000Y-96600000D03*
X174440000Y-96600000D03*
%TD*%
%TO.C,R559*%
X131060000Y-217000000D03*
X130040000Y-217000000D03*
%TD*%
%TO.C,R1004*%
X182860000Y-116199999D03*
X181840000Y-116199999D03*
%TD*%
%TO.C,R709*%
X75560000Y-211399999D03*
X74540000Y-211399999D03*
%TD*%
%TO.C,R100*%
X64460000Y-222600000D03*
X63440000Y-222600000D03*
%TD*%
%TO.C,R802*%
X149560000Y-172200000D03*
X148540000Y-172200000D03*
%TD*%
D13*
%TO.C,C107*%
X101430000Y-261799999D03*
X100470000Y-261799999D03*
%TD*%
D12*
%TO.C,R65*%
X171760000Y-225399999D03*
X170740000Y-225399999D03*
%TD*%
%TO.C,R760*%
X105160000Y-65800000D03*
X104140000Y-65800000D03*
%TD*%
%TO.C,R12*%
X182860000Y-138600000D03*
X181840000Y-138600000D03*
%TD*%
%TO.C,R104*%
X123660000Y-105000000D03*
X122640000Y-105000000D03*
%TD*%
%TO.C,R422*%
X123660000Y-172200000D03*
X122640000Y-172200000D03*
%TD*%
%TO.C,R822*%
X116260000Y-222600000D03*
X115240000Y-222600000D03*
%TD*%
%TO.C,R356*%
X57060000Y-172200000D03*
X56040000Y-172200000D03*
%TD*%
%TO.C,R239*%
X186560000Y-247799999D03*
X185540000Y-247799999D03*
%TD*%
%TO.C,R990*%
X267960000Y-99399999D03*
X266940000Y-99399999D03*
%TD*%
%TO.C,R401*%
X145860000Y-256200000D03*
X144840000Y-256200000D03*
%TD*%
%TO.C,R174*%
X190260000Y-169399999D03*
X189240000Y-169399999D03*
%TD*%
%TO.C,R107*%
X75560000Y-172200000D03*
X74540000Y-172200000D03*
%TD*%
%TO.C,R468*%
X53360000Y-63000000D03*
X52340000Y-63000000D03*
%TD*%
%TO.C,R1057*%
X197660000Y-259000000D03*
X196640000Y-259000000D03*
%TD*%
D13*
%TO.C,C111*%
X171730000Y-203000000D03*
X170770000Y-203000000D03*
%TD*%
D12*
%TO.C,R655*%
X112560000Y-152600000D03*
X111540000Y-152600000D03*
%TD*%
%TO.C,R62*%
X171760000Y-63000000D03*
X170740000Y-63000000D03*
%TD*%
%TO.C,R539*%
X112560000Y-149799999D03*
X111540000Y-149799999D03*
%TD*%
%TO.C,R457*%
X116260000Y-169399999D03*
X115240000Y-169399999D03*
%TD*%
%TO.C,R1051*%
X197660000Y-186200000D03*
X196640000Y-186200000D03*
%TD*%
%TO.C,R702*%
X134760000Y-228200000D03*
X133740000Y-228200000D03*
%TD*%
D13*
%TO.C,C133*%
X249430000Y-169399999D03*
X248470000Y-169399999D03*
%TD*%
D12*
%TO.C,R431*%
X64460000Y-124600000D03*
X63440000Y-124600000D03*
%TD*%
%TO.C,R53*%
X164360000Y-124600000D03*
X163340000Y-124600000D03*
%TD*%
%TO.C,R759*%
X168060000Y-93800000D03*
X167040000Y-93800000D03*
%TD*%
%TO.C,R757*%
X101460000Y-172200000D03*
X100440000Y-172200000D03*
%TD*%
%TO.C,R341*%
X264260000Y-79800000D03*
X263240000Y-79800000D03*
%TD*%
%TO.C,R819*%
X175460000Y-169399999D03*
X174440000Y-169399999D03*
%TD*%
%TO.C,R528*%
X171760000Y-113399999D03*
X170740000Y-113399999D03*
%TD*%
D13*
%TO.C,C136*%
X245730000Y-203000000D03*
X244770000Y-203000000D03*
%TD*%
D12*
%TO.C,R914*%
X105160000Y-186200000D03*
X104140000Y-186200000D03*
%TD*%
%TO.C,R322*%
X171760000Y-273000000D03*
X170740000Y-273000000D03*
%TD*%
%TO.C,R313*%
X60760000Y-259000000D03*
X59740000Y-259000000D03*
%TD*%
%TO.C,R699*%
X253160000Y-138600000D03*
X252140000Y-138600000D03*
%TD*%
%TO.C,R827*%
X230960000Y-107800000D03*
X229940000Y-107800000D03*
%TD*%
%TO.C,R499*%
X249460000Y-141399999D03*
X248440000Y-141399999D03*
%TD*%
D13*
%TO.C,C144*%
X31130000Y-228200000D03*
X30170000Y-228200000D03*
%TD*%
D12*
%TO.C,R287*%
X82960000Y-121800000D03*
X81940000Y-121800000D03*
%TD*%
D14*
%TO.C,D66*%
X244156950Y-9900000D03*
X242056950Y-9900000D03*
%TD*%
D12*
%TO.C,R576*%
X145860000Y-121800000D03*
X144840000Y-121800000D03*
%TD*%
%TO.C,R317*%
X153260000Y-169399999D03*
X152240000Y-169399999D03*
%TD*%
%TO.C,R1036*%
X64460000Y-200200000D03*
X63440000Y-200200000D03*
%TD*%
%TO.C,R133*%
X145860000Y-124600000D03*
X144840000Y-124600000D03*
%TD*%
%TO.C,R229*%
X186560000Y-175000000D03*
X185540000Y-175000000D03*
%TD*%
%TO.C,R1064*%
X164360000Y-247799999D03*
X163340000Y-247799999D03*
%TD*%
%TO.C,R993*%
X153260000Y-287000000D03*
X152240000Y-287000000D03*
%TD*%
D15*
%TO.C,C68*%
X11800000Y-27480000D03*
X11800000Y-26520000D03*
%TD*%
%TO.C,C30*%
X8500000Y-149980000D03*
X8500000Y-149020000D03*
%TD*%
D12*
%TO.C,R237*%
X212460000Y-91000000D03*
X211440000Y-91000000D03*
%TD*%
%TO.C,R312*%
X193960000Y-71400000D03*
X192940000Y-71400000D03*
%TD*%
%TO.C,R26*%
X38560000Y-172200000D03*
X37540000Y-172200000D03*
%TD*%
%TO.C,R633*%
X97760000Y-233799999D03*
X96740000Y-233799999D03*
%TD*%
%TO.C,R1079*%
X243616950Y-7800000D03*
X242596950Y-7800000D03*
%TD*%
D13*
%TO.C,C104*%
X97730000Y-225399999D03*
X96770000Y-225399999D03*
%TD*%
D12*
%TO.C,R966*%
X145860000Y-247799999D03*
X144840000Y-247799999D03*
%TD*%
%TO.C,R45*%
X123660000Y-158200000D03*
X122640000Y-158200000D03*
%TD*%
%TO.C,R246*%
X260560000Y-77000000D03*
X259540000Y-77000000D03*
%TD*%
%TO.C,R976*%
X182860000Y-231000000D03*
X181840000Y-231000000D03*
%TD*%
%TO.C,R840*%
X97760000Y-273000000D03*
X96740000Y-273000000D03*
%TD*%
%TO.C,R375*%
X142160000Y-119000000D03*
X141140000Y-119000000D03*
%TD*%
%TO.C,R169*%
X38560000Y-29400000D03*
X37540000Y-29400000D03*
%TD*%
D16*
%TO.C,R1107*%
X48800000Y-146910000D03*
X48800000Y-145890000D03*
%TD*%
D12*
%TO.C,R1073*%
X267960000Y-147000000D03*
X266940000Y-147000000D03*
%TD*%
%TO.C,R545*%
X68160000Y-107800000D03*
X67140000Y-107800000D03*
%TD*%
%TO.C,R114*%
X193960000Y-236600000D03*
X192940000Y-236600000D03*
%TD*%
%TO.C,R639*%
X190260000Y-247799999D03*
X189240000Y-247799999D03*
%TD*%
%TO.C,R825*%
X216160000Y-208600000D03*
X215140000Y-208600000D03*
%TD*%
%TO.C,R875*%
X271660000Y-99399999D03*
X270640000Y-99399999D03*
%TD*%
%TO.C,R1081*%
X50402798Y-7800000D03*
X49382798Y-7800000D03*
%TD*%
%TO.C,R441*%
X79260000Y-29400000D03*
X78240000Y-29400000D03*
%TD*%
%TO.C,R455*%
X179160000Y-133000000D03*
X178140000Y-133000000D03*
%TD*%
%TO.C,R982*%
X153260000Y-141399999D03*
X152240000Y-141399999D03*
%TD*%
%TO.C,R396*%
X97760000Y-29400000D03*
X96740000Y-29400000D03*
%TD*%
%TO.C,R339*%
X227260000Y-244999999D03*
X226240000Y-244999999D03*
%TD*%
%TO.C,R82*%
X127360000Y-169399999D03*
X126340000Y-169399999D03*
%TD*%
D15*
%TO.C,C37*%
X282200000Y-86980000D03*
X282200000Y-86020000D03*
%TD*%
D12*
%TO.C,R37*%
X49660000Y-152600000D03*
X48640000Y-152600000D03*
%TD*%
%TO.C,R137*%
X68160000Y-225399999D03*
X67140000Y-225399999D03*
%TD*%
D15*
%TO.C,C51*%
X282200000Y-135980000D03*
X282200000Y-135020000D03*
%TD*%
D12*
%TO.C,R626*%
X149560000Y-85399999D03*
X148540000Y-85399999D03*
%TD*%
%TO.C,R594*%
X193960000Y-287000000D03*
X192940000Y-287000000D03*
%TD*%
%TO.C,R1027*%
X64460000Y-189000000D03*
X63440000Y-189000000D03*
%TD*%
%TO.C,R487*%
X108860000Y-247799999D03*
X107840000Y-247799999D03*
%TD*%
%TO.C,R1083*%
X90377119Y-7800000D03*
X89357119Y-7800000D03*
%TD*%
D15*
%TO.C,C95*%
X11800000Y-149980000D03*
X11800000Y-149020000D03*
%TD*%
%TO.C,C47*%
X282200000Y-121980000D03*
X282200000Y-121020000D03*
%TD*%
%TO.C,C55*%
X282200000Y-149980000D03*
X282200000Y-149020000D03*
%TD*%
D12*
%TO.C,R666*%
X142160000Y-60199999D03*
X141140000Y-60199999D03*
%TD*%
%TO.C,R1033*%
X68160000Y-261799999D03*
X67140000Y-261799999D03*
%TD*%
D13*
%TO.C,C142*%
X31130000Y-200200000D03*
X30170000Y-200200000D03*
%TD*%
D12*
%TO.C,R664*%
X223560000Y-138600000D03*
X222540000Y-138600000D03*
%TD*%
D15*
%TO.C,C71*%
X11800000Y-37980000D03*
X11800000Y-37020000D03*
%TD*%
D12*
%TO.C,R427*%
X75560000Y-270200000D03*
X74540000Y-270200000D03*
%TD*%
%TO.C,R745*%
X134760000Y-172200000D03*
X133740000Y-172200000D03*
%TD*%
%TO.C,R986*%
X205060000Y-121800000D03*
X204040000Y-121800000D03*
%TD*%
%TO.C,R286*%
X145860000Y-259000000D03*
X144840000Y-259000000D03*
%TD*%
%TO.C,R1043*%
X79260000Y-189000000D03*
X78240000Y-189000000D03*
%TD*%
%TO.C,R978*%
X193960000Y-270200000D03*
X192940000Y-270200000D03*
%TD*%
%TO.C,R275*%
X171760000Y-152600000D03*
X170740000Y-152600000D03*
%TD*%
%TO.C,R590*%
X45960000Y-225399999D03*
X44940000Y-225399999D03*
%TD*%
%TO.C,R163*%
X168060000Y-130199999D03*
X167040000Y-130199999D03*
%TD*%
%TO.C,R631*%
X134760000Y-256200000D03*
X133740000Y-256200000D03*
%TD*%
D13*
%TO.C,C101*%
X101430000Y-191799999D03*
X100470000Y-191799999D03*
%TD*%
D12*
%TO.C,R766*%
X175460000Y-166600000D03*
X174440000Y-166600000D03*
%TD*%
D15*
%TO.C,C34*%
X8500000Y-163980000D03*
X8500000Y-163020000D03*
%TD*%
D13*
%TO.C,C113*%
X168030000Y-222600000D03*
X167070000Y-222600000D03*
%TD*%
D12*
%TO.C,R955*%
X119960000Y-208600000D03*
X118940000Y-208600000D03*
%TD*%
%TO.C,R816*%
X75560000Y-116199999D03*
X74540000Y-116199999D03*
%TD*%
%TO.C,R703*%
X230960000Y-91000000D03*
X229940000Y-91000000D03*
%TD*%
%TO.C,R157*%
X116260000Y-261799999D03*
X115240000Y-261799999D03*
%TD*%
D13*
%TO.C,C135*%
X249430000Y-191799999D03*
X248470000Y-191799999D03*
%TD*%
D15*
%TO.C,C48*%
X282200000Y-125480000D03*
X282200000Y-124520000D03*
%TD*%
D12*
%TO.C,R83*%
X97760000Y-200200000D03*
X96740000Y-200200000D03*
%TD*%
%TO.C,R636*%
X45960000Y-172200000D03*
X44940000Y-172200000D03*
%TD*%
%TO.C,R738*%
X123660000Y-113399999D03*
X122640000Y-113399999D03*
%TD*%
%TO.C,R589*%
X105160000Y-222600000D03*
X104140000Y-222600000D03*
%TD*%
%TO.C,R359*%
X127360000Y-236600000D03*
X126340000Y-236600000D03*
%TD*%
%TO.C,R624*%
X57060000Y-270200000D03*
X56040000Y-270200000D03*
%TD*%
D16*
%TO.C,R1103*%
X36000000Y-146910000D03*
X36000000Y-145890000D03*
%TD*%
D12*
%TO.C,R1*%
X168060000Y-71400000D03*
X167040000Y-71400000D03*
%TD*%
%TO.C,R177*%
X42260000Y-29400000D03*
X41240000Y-29400000D03*
%TD*%
%TO.C,R517*%
X219860000Y-197399999D03*
X218840000Y-197399999D03*
%TD*%
D15*
%TO.C,C18*%
X8500000Y-79980000D03*
X8500000Y-79020000D03*
%TD*%
D13*
%TO.C,C116*%
X168030000Y-244999999D03*
X167070000Y-244999999D03*
%TD*%
D12*
%TO.C,R899*%
X119960000Y-169399999D03*
X118940000Y-169399999D03*
%TD*%
D16*
%TO.C,R1090*%
X36000000Y-143510000D03*
X36000000Y-142490000D03*
%TD*%
D12*
%TO.C,R361*%
X175460000Y-121800000D03*
X174440000Y-121800000D03*
%TD*%
%TO.C,R608*%
X171760000Y-29400000D03*
X170740000Y-29400000D03*
%TD*%
%TO.C,R434*%
X230960000Y-102199999D03*
X229940000Y-102199999D03*
%TD*%
%TO.C,R522*%
X119960000Y-144200000D03*
X118940000Y-144200000D03*
%TD*%
%TO.C,R294*%
X219860000Y-287000000D03*
X218840000Y-287000000D03*
%TD*%
%TO.C,R951*%
X53360000Y-29400000D03*
X52340000Y-29400000D03*
%TD*%
%TO.C,R416*%
X105160000Y-211399999D03*
X104140000Y-211399999D03*
%TD*%
D15*
%TO.C,C25*%
X8500000Y-104480000D03*
X8500000Y-103520000D03*
%TD*%
D13*
%TO.C,C127*%
X156930000Y-225399999D03*
X155970000Y-225399999D03*
%TD*%
D15*
%TO.C,C92*%
X11800000Y-139480000D03*
X11800000Y-138520000D03*
%TD*%
D12*
%TO.C,R773*%
X156960000Y-135800000D03*
X155940000Y-135800000D03*
%TD*%
%TO.C,R262*%
X64460000Y-172200000D03*
X63440000Y-172200000D03*
%TD*%
%TO.C,R122*%
X49660000Y-169399999D03*
X48640000Y-169399999D03*
%TD*%
%TO.C,R1034*%
X64460000Y-273000000D03*
X63440000Y-273000000D03*
%TD*%
%TO.C,R581*%
X193960000Y-200200000D03*
X192940000Y-200200000D03*
%TD*%
%TO.C,R938*%
X142160000Y-211399999D03*
X141140000Y-211399999D03*
%TD*%
%TO.C,R450*%
X86660000Y-172200000D03*
X85640000Y-172200000D03*
%TD*%
%TO.C,R577*%
X53360000Y-172200000D03*
X52340000Y-172200000D03*
%TD*%
%TO.C,R351*%
X108860000Y-270200000D03*
X107840000Y-270200000D03*
%TD*%
%TO.C,R550*%
X153260000Y-200200000D03*
X152240000Y-200200000D03*
%TD*%
%TO.C,R748*%
X101460000Y-270200000D03*
X100440000Y-270200000D03*
%TD*%
%TO.C,R954*%
X260560000Y-82600000D03*
X259540000Y-82600000D03*
%TD*%
%TO.C,R884*%
X145860000Y-219799999D03*
X144840000Y-219799999D03*
%TD*%
%TO.C,R1069*%
X201360000Y-119000000D03*
X200340000Y-119000000D03*
%TD*%
%TO.C,R214*%
X97760000Y-219799999D03*
X96740000Y-219799999D03*
%TD*%
%TO.C,R892*%
X175460000Y-256200000D03*
X174440000Y-256200000D03*
%TD*%
%TO.C,R60*%
X105160000Y-270200000D03*
X104140000Y-270200000D03*
%TD*%
D13*
%TO.C,C138*%
X249430000Y-222600000D03*
X248470000Y-222600000D03*
%TD*%
D12*
%TO.C,R368*%
X267960000Y-161000000D03*
X266940000Y-161000000D03*
%TD*%
%TO.C,R704*%
X267960000Y-141399999D03*
X266940000Y-141399999D03*
%TD*%
%TO.C,R779*%
X134760000Y-169399999D03*
X133740000Y-169399999D03*
%TD*%
%TO.C,R656*%
X57060000Y-247799999D03*
X56040000Y-247799999D03*
%TD*%
%TO.C,R929*%
X45960000Y-71400000D03*
X44940000Y-71400000D03*
%TD*%
D15*
%TO.C,C56*%
X282200000Y-153480000D03*
X282200000Y-152520000D03*
%TD*%
D12*
%TO.C,R242*%
X256860000Y-32200000D03*
X255840000Y-32200000D03*
%TD*%
%TO.C,R235*%
X119960000Y-200200000D03*
X118940000Y-200200000D03*
%TD*%
%TO.C,R199*%
X182860000Y-200200000D03*
X181840000Y-200200000D03*
%TD*%
%TO.C,R283*%
X90360000Y-166600000D03*
X89340000Y-166600000D03*
%TD*%
D16*
%TO.C,R1110*%
X58400000Y-146910000D03*
X58400000Y-145890000D03*
%TD*%
D12*
%TO.C,R565*%
X131060000Y-147000000D03*
X130040000Y-147000000D03*
%TD*%
%TO.C,R387*%
X112560000Y-233799999D03*
X111540000Y-233799999D03*
%TD*%
%TO.C,R228*%
X27460000Y-32200000D03*
X26440000Y-32200000D03*
%TD*%
D13*
%TO.C,C112*%
X171730000Y-208600000D03*
X170770000Y-208600000D03*
%TD*%
D12*
%TO.C,R419*%
X119960000Y-172200000D03*
X118940000Y-172200000D03*
%TD*%
%TO.C,R721*%
X168060000Y-273000000D03*
X167040000Y-273000000D03*
%TD*%
%TO.C,R57*%
X101460000Y-208600000D03*
X100440000Y-208600000D03*
%TD*%
%TO.C,R744*%
X105160000Y-247799999D03*
X104140000Y-247799999D03*
%TD*%
%TO.C,R648*%
X101460000Y-135800000D03*
X100440000Y-135800000D03*
%TD*%
D16*
%TO.C,R1100*%
X26400000Y-146910000D03*
X26400000Y-145890000D03*
%TD*%
D12*
%TO.C,R1013*%
X190260000Y-127399999D03*
X189240000Y-127399999D03*
%TD*%
%TO.C,R32*%
X142160000Y-261799999D03*
X141140000Y-261799999D03*
%TD*%
%TO.C,R392*%
X242060000Y-88199999D03*
X241040000Y-88199999D03*
%TD*%
%TO.C,R278*%
X23760000Y-32200000D03*
X22740000Y-32200000D03*
%TD*%
%TO.C,R1026*%
X149560000Y-270200000D03*
X148540000Y-270200000D03*
%TD*%
%TO.C,R516*%
X131060000Y-189000000D03*
X130040000Y-189000000D03*
%TD*%
%TO.C,R964*%
X256860000Y-43400000D03*
X255840000Y-43400000D03*
%TD*%
%TO.C,R613*%
X38560000Y-32200000D03*
X37540000Y-32200000D03*
%TD*%
%TO.C,R881*%
X101460000Y-247799999D03*
X100440000Y-247799999D03*
%TD*%
%TO.C,R436*%
X145860000Y-200200000D03*
X144840000Y-200200000D03*
%TD*%
%TO.C,R821*%
X260560000Y-163799999D03*
X259540000Y-163799999D03*
%TD*%
%TO.C,R430*%
X175460000Y-82600000D03*
X174440000Y-82600000D03*
%TD*%
D15*
%TO.C,C63*%
X282200000Y-177980000D03*
X282200000Y-177020000D03*
%TD*%
D12*
%TO.C,R136*%
X131060000Y-169399999D03*
X130040000Y-169399999D03*
%TD*%
%TO.C,R887*%
X16360000Y-93800000D03*
X15340000Y-93800000D03*
%TD*%
%TO.C,R227*%
X49660000Y-200200000D03*
X48640000Y-200200000D03*
%TD*%
%TO.C,R418*%
X94060000Y-172200000D03*
X93040000Y-172200000D03*
%TD*%
%TO.C,R534*%
X138460000Y-189000000D03*
X137440000Y-189000000D03*
%TD*%
%TO.C,R879*%
X16360000Y-85399999D03*
X15340000Y-85399999D03*
%TD*%
%TO.C,R241*%
X134760000Y-82600000D03*
X133740000Y-82600000D03*
%TD*%
%TO.C,R1007*%
X71860000Y-197399999D03*
X70840000Y-197399999D03*
%TD*%
%TO.C,R916*%
X60760000Y-225399999D03*
X59740000Y-225399999D03*
%TD*%
%TO.C,R472*%
X197660000Y-85399999D03*
X196640000Y-85399999D03*
%TD*%
%TO.C,R1055*%
X197660000Y-233799999D03*
X196640000Y-233799999D03*
%TD*%
%TO.C,R67*%
X149560000Y-26600000D03*
X148540000Y-26600000D03*
%TD*%
%TO.C,R675*%
X212460000Y-26600000D03*
X211440000Y-26600000D03*
%TD*%
%TO.C,R866*%
X223560000Y-163799999D03*
X222540000Y-163799999D03*
%TD*%
D16*
%TO.C,R1089*%
X32799999Y-143510000D03*
X32799999Y-142490000D03*
%TD*%
D12*
%TO.C,R273*%
X153260000Y-144200000D03*
X152240000Y-144200000D03*
%TD*%
%TO.C,R245*%
X97760000Y-236600000D03*
X96740000Y-236600000D03*
%TD*%
%TO.C,R691*%
X145860000Y-211399999D03*
X144840000Y-211399999D03*
%TD*%
D15*
%TO.C,C83*%
X11800000Y-79980000D03*
X11800000Y-79020000D03*
%TD*%
%TO.C,C13*%
X8500000Y-62480000D03*
X8500000Y-61520000D03*
%TD*%
D12*
%TO.C,R448*%
X138460000Y-253399999D03*
X137440000Y-253399999D03*
%TD*%
%TO.C,R598*%
X245760000Y-63000000D03*
X244740000Y-63000000D03*
%TD*%
%TO.C,R616*%
X242060000Y-175000000D03*
X241040000Y-175000000D03*
%TD*%
%TO.C,R123*%
X245760000Y-175000000D03*
X244740000Y-175000000D03*
%TD*%
%TO.C,R414*%
X134760000Y-191799999D03*
X133740000Y-191799999D03*
%TD*%
%TO.C,R71*%
X127360000Y-130199999D03*
X126340000Y-130199999D03*
%TD*%
%TO.C,R438*%
X175460000Y-253399999D03*
X174440000Y-253399999D03*
%TD*%
%TO.C,R91*%
X64460000Y-96600000D03*
X63440000Y-96600000D03*
%TD*%
%TO.C,R864*%
X112560000Y-124600000D03*
X111540000Y-124600000D03*
%TD*%
%TO.C,R449*%
X134760000Y-259000000D03*
X133740000Y-259000000D03*
%TD*%
%TO.C,R829*%
X119960000Y-63000000D03*
X118940000Y-63000000D03*
%TD*%
D16*
%TO.C,R1096*%
X55200000Y-143510000D03*
X55200000Y-142490000D03*
%TD*%
D12*
%TO.C,R665*%
X242060000Y-138600000D03*
X241040000Y-138600000D03*
%TD*%
%TO.C,R233*%
X94060000Y-105000000D03*
X93040000Y-105000000D03*
%TD*%
%TO.C,R1024*%
X149560000Y-247799999D03*
X148540000Y-247799999D03*
%TD*%
%TO.C,R132*%
X45960000Y-247799999D03*
X44940000Y-247799999D03*
%TD*%
D16*
%TO.C,R1085*%
X20000000Y-143510000D03*
X20000000Y-142490000D03*
%TD*%
D12*
%TO.C,R563*%
X227260000Y-65800000D03*
X226240000Y-65800000D03*
%TD*%
%TO.C,R437*%
X138460000Y-259000000D03*
X137440000Y-259000000D03*
%TD*%
D13*
%TO.C,C129*%
X168030000Y-247799999D03*
X167070000Y-247799999D03*
%TD*%
D12*
%TO.C,R849*%
X127360000Y-222600000D03*
X126340000Y-222600000D03*
%TD*%
D17*
%TO.C,C100*%
X143800079Y-312100000D03*
X141900079Y-312100000D03*
%TD*%
D12*
%TO.C,R735*%
X153260000Y-113399999D03*
X152240000Y-113399999D03*
%TD*%
%TO.C,R99*%
X160660000Y-144200000D03*
X159640000Y-144200000D03*
%TD*%
%TO.C,R710*%
X171760000Y-259000000D03*
X170740000Y-259000000D03*
%TD*%
%TO.C,R400*%
X27460000Y-49000000D03*
X26440000Y-49000000D03*
%TD*%
%TO.C,R844*%
X171760000Y-211399999D03*
X170740000Y-211399999D03*
%TD*%
%TO.C,R13*%
X186560000Y-256200000D03*
X185540000Y-256200000D03*
%TD*%
D18*
%TO.C,U1*%
X42725000Y-77000000D03*
D19*
X42425000Y-80030000D03*
X37575000Y-80030000D03*
D18*
X37275000Y-77000000D03*
D20*
X49690000Y-76870000D03*
D21*
X49690000Y-79410000D03*
D22*
X49690000Y-81950000D03*
D21*
X49690000Y-84490000D03*
X49690000Y-87030000D03*
X49690000Y-89570000D03*
X49690000Y-92110000D03*
D22*
X49690000Y-94650000D03*
D21*
X49690000Y-97190000D03*
X49690000Y-99730000D03*
X49690000Y-102270000D03*
X49690000Y-104810000D03*
D22*
X49690000Y-107350000D03*
D21*
X49690000Y-109890000D03*
X49690000Y-112430000D03*
X49690000Y-114970000D03*
X49690000Y-117510000D03*
D22*
X49690000Y-120050000D03*
D21*
X49690000Y-122590000D03*
X49690000Y-125130000D03*
X30310000Y-125130000D03*
X30310000Y-122590000D03*
D20*
X30310000Y-120050000D03*
D21*
X30310000Y-117510000D03*
X30310000Y-114970000D03*
X30310000Y-112430000D03*
X30310000Y-109890000D03*
D20*
X30310000Y-107350000D03*
D21*
X30310000Y-104810000D03*
X30310000Y-102270000D03*
X30310000Y-99730000D03*
X30310000Y-97190000D03*
D20*
X30310000Y-94650000D03*
D21*
X30310000Y-92110000D03*
X30310000Y-89570000D03*
X30310000Y-87030000D03*
X30310000Y-84490000D03*
D20*
X30310000Y-81950000D03*
D21*
X30310000Y-79410000D03*
X30310000Y-76870000D03*
D23*
X39415900Y-106700000D03*
D24*
X36875900Y-106700000D03*
X34335900Y-106700000D03*
D25*
X40000000Y-80000000D03*
X39000000Y-76700000D03*
X41000000Y-76700000D03*
X42500000Y-85000000D03*
X42500000Y-87500000D03*
X42500000Y-90000000D03*
%TD*%
D12*
%TO.C,R826*%
X94060000Y-99399999D03*
X93040000Y-99399999D03*
%TD*%
%TO.C,R992*%
X45960000Y-233799999D03*
X44940000Y-233799999D03*
%TD*%
%TO.C,R10*%
X20060000Y-49000000D03*
X19040000Y-49000000D03*
%TD*%
%TO.C,R292*%
X156960000Y-63000000D03*
X155940000Y-63000000D03*
%TD*%
%TO.C,R225*%
X94060000Y-135800000D03*
X93040000Y-135800000D03*
%TD*%
%TO.C,R64*%
X57060000Y-186200000D03*
X56040000Y-186200000D03*
%TD*%
%TO.C,R303*%
X245760000Y-121800000D03*
X244740000Y-121800000D03*
%TD*%
D15*
%TO.C,C84*%
X11800000Y-83480000D03*
X11800000Y-82520000D03*
%TD*%
D12*
%TO.C,R857*%
X160660000Y-130199999D03*
X159640000Y-130199999D03*
%TD*%
%TO.C,R595*%
X71860000Y-219799999D03*
X70840000Y-219799999D03*
%TD*%
%TO.C,R1001*%
X201360000Y-110600000D03*
X200340000Y-110600000D03*
%TD*%
D15*
%TO.C,C36*%
X282200000Y-83480000D03*
X282200000Y-82520000D03*
%TD*%
D12*
%TO.C,R671*%
X216160000Y-163799999D03*
X215140000Y-163799999D03*
%TD*%
D15*
%TO.C,C60*%
X282200000Y-167480000D03*
X282200000Y-166520000D03*
%TD*%
%TO.C,C66*%
X11800000Y-20480000D03*
X11800000Y-19520000D03*
%TD*%
D12*
%TO.C,R1035*%
X60760000Y-186200000D03*
X59740000Y-186200000D03*
%TD*%
%TO.C,R876*%
X179160000Y-172200000D03*
X178140000Y-172200000D03*
%TD*%
%TO.C,R854*%
X197660000Y-158200000D03*
X196640000Y-158200000D03*
%TD*%
%TO.C,R293*%
X193960000Y-189000000D03*
X192940000Y-189000000D03*
%TD*%
%TO.C,R16*%
X223560000Y-273000000D03*
X222540000Y-273000000D03*
%TD*%
%TO.C,R238*%
X219860000Y-267399999D03*
X218840000Y-267399999D03*
%TD*%
%TO.C,R28*%
X145860000Y-99399999D03*
X144840000Y-99399999D03*
%TD*%
%TO.C,R206*%
X101460000Y-256200000D03*
X100440000Y-256200000D03*
%TD*%
%TO.C,R842*%
X179160000Y-233799999D03*
X178140000Y-233799999D03*
%TD*%
D13*
%TO.C,C140*%
X249430000Y-247799999D03*
X248470000Y-247799999D03*
%TD*%
D12*
%TO.C,R296*%
X97760000Y-172200000D03*
X96740000Y-172200000D03*
%TD*%
%TO.C,R346*%
X45960000Y-169399999D03*
X44940000Y-169399999D03*
%TD*%
%TO.C,R332*%
X205060000Y-127399999D03*
X204040000Y-127399999D03*
%TD*%
%TO.C,R604*%
X134760000Y-273000000D03*
X133740000Y-273000000D03*
%TD*%
D13*
%TO.C,C131*%
X179130000Y-267399999D03*
X178170000Y-267399999D03*
%TD*%
D12*
%TO.C,R622*%
X171760000Y-105000000D03*
X170740000Y-105000000D03*
%TD*%
%TO.C,R975*%
X168060000Y-124600000D03*
X167040000Y-124600000D03*
%TD*%
%TO.C,R786*%
X267960000Y-74199999D03*
X266940000Y-74199999D03*
%TD*%
%TO.C,R937*%
X16360000Y-71400000D03*
X15340000Y-71400000D03*
%TD*%
%TO.C,R520*%
X175460000Y-244999999D03*
X174440000Y-244999999D03*
%TD*%
%TO.C,R592*%
X108860000Y-26600000D03*
X107840000Y-26600000D03*
%TD*%
D15*
%TO.C,C6*%
X8500000Y-37980000D03*
X8500000Y-37020000D03*
%TD*%
D13*
%TO.C,C105*%
X101430000Y-239399999D03*
X100470000Y-239399999D03*
%TD*%
D12*
%TO.C,R810*%
X127360000Y-113399999D03*
X126340000Y-113399999D03*
%TD*%
%TO.C,R288*%
X193960000Y-211399999D03*
X192940000Y-211399999D03*
%TD*%
%TO.C,R895*%
X145860000Y-267399999D03*
X144840000Y-267399999D03*
%TD*%
D15*
%TO.C,C10*%
X8500000Y-51980000D03*
X8500000Y-51020000D03*
%TD*%
D16*
%TO.C,R1095*%
X52000000Y-143510000D03*
X52000000Y-142490000D03*
%TD*%
D12*
%TO.C,R175*%
X175460000Y-217000000D03*
X174440000Y-217000000D03*
%TD*%
%TO.C,R79*%
X153260000Y-189000000D03*
X152240000Y-189000000D03*
%TD*%
%TO.C,R863*%
X64460000Y-259000000D03*
X63440000Y-259000000D03*
%TD*%
%TO.C,R519*%
X131060000Y-200200000D03*
X130040000Y-200200000D03*
%TD*%
%TO.C,R634*%
X208760000Y-88199999D03*
X207740000Y-88199999D03*
%TD*%
%TO.C,R926*%
X186560000Y-63000000D03*
X185540000Y-63000000D03*
%TD*%
%TO.C,R1049*%
X79260000Y-259000000D03*
X78240000Y-259000000D03*
%TD*%
%TO.C,R66*%
X245760000Y-99399999D03*
X244740000Y-99399999D03*
%TD*%
%TO.C,R690*%
X190260000Y-172200000D03*
X189240000Y-172200000D03*
%TD*%
D15*
%TO.C,C33*%
X8500000Y-160480000D03*
X8500000Y-159520000D03*
%TD*%
D12*
%TO.C,R672*%
X205060000Y-96600000D03*
X204040000Y-96600000D03*
%TD*%
%TO.C,R295*%
X227260000Y-233799999D03*
X226240000Y-233799999D03*
%TD*%
%TO.C,R301*%
X105160000Y-256200000D03*
X104140000Y-256200000D03*
%TD*%
%TO.C,R284*%
X97760000Y-244999999D03*
X96740000Y-244999999D03*
%TD*%
%TO.C,R662*%
X101460000Y-85399999D03*
X100440000Y-85399999D03*
%TD*%
D16*
%TO.C,R1101*%
X29600000Y-146910000D03*
X29600000Y-145890000D03*
%TD*%
D12*
%TO.C,R408*%
X212460000Y-68600000D03*
X211440000Y-68600000D03*
%TD*%
%TO.C,R1006*%
X230960000Y-65800000D03*
X229940000Y-65800000D03*
%TD*%
%TO.C,R276*%
X223560000Y-261799999D03*
X222540000Y-261799999D03*
%TD*%
%TO.C,R52*%
X219860000Y-191799999D03*
X218840000Y-191799999D03*
%TD*%
%TO.C,R719*%
X94060000Y-60199999D03*
X93040000Y-60199999D03*
%TD*%
D13*
%TO.C,C120*%
X134730000Y-219799999D03*
X133770000Y-219799999D03*
%TD*%
D12*
%TO.C,R370*%
X82960000Y-189000000D03*
X81940000Y-189000000D03*
%TD*%
%TO.C,R197*%
X223560000Y-93800000D03*
X222540000Y-93800000D03*
%TD*%
%TO.C,R138*%
X230960000Y-169399999D03*
X229940000Y-169399999D03*
%TD*%
%TO.C,R196*%
X153260000Y-261799999D03*
X152240000Y-261799999D03*
%TD*%
%TO.C,R693*%
X112560000Y-177799999D03*
X111540000Y-177799999D03*
%TD*%
%TO.C,R865*%
X193960000Y-172200000D03*
X192940000Y-172200000D03*
%TD*%
%TO.C,R643*%
X190260000Y-214200000D03*
X189240000Y-214200000D03*
%TD*%
%TO.C,R934*%
X201360000Y-149799999D03*
X200340000Y-149799999D03*
%TD*%
%TO.C,R588*%
X68160000Y-186200000D03*
X67140000Y-186200000D03*
%TD*%
%TO.C,R1068*%
X245760000Y-163799999D03*
X244740000Y-163799999D03*
%TD*%
%TO.C,R913*%
X164360000Y-63000000D03*
X163340000Y-63000000D03*
%TD*%
%TO.C,R1018*%
X64460000Y-256200000D03*
X63440000Y-256200000D03*
%TD*%
%TO.C,R50*%
X101460000Y-169399999D03*
X100440000Y-169399999D03*
%TD*%
D16*
%TO.C,R1087*%
X26400000Y-143510000D03*
X26400000Y-142490000D03*
%TD*%
D12*
%TO.C,R635*%
X219860000Y-208600000D03*
X218840000Y-208600000D03*
%TD*%
%TO.C,R428*%
X193960000Y-222600000D03*
X192940000Y-222600000D03*
%TD*%
%TO.C,R403*%
X57060000Y-65800000D03*
X56040000Y-65800000D03*
%TD*%
%TO.C,R191*%
X242060000Y-163799999D03*
X241040000Y-163799999D03*
%TD*%
%TO.C,R374*%
X82960000Y-135800000D03*
X81940000Y-135800000D03*
%TD*%
%TO.C,R411*%
X75560000Y-200200000D03*
X74540000Y-200200000D03*
%TD*%
D16*
%TO.C,R1093*%
X45600000Y-143510000D03*
X45600000Y-142490000D03*
%TD*%
D12*
%TO.C,R750*%
X64460000Y-74199999D03*
X63440000Y-74199999D03*
%TD*%
%TO.C,R580*%
X112560000Y-26600000D03*
X111540000Y-26600000D03*
%TD*%
%TO.C,R574*%
X112560000Y-197399999D03*
X111540000Y-197399999D03*
%TD*%
%TO.C,R147*%
X153260000Y-93800000D03*
X152240000Y-93800000D03*
%TD*%
%TO.C,R546*%
X175460000Y-222600000D03*
X174440000Y-222600000D03*
%TD*%
%TO.C,R158*%
X238360000Y-144200000D03*
X237340000Y-144200000D03*
%TD*%
D13*
%TO.C,C139*%
X249430000Y-233799999D03*
X248470000Y-233799999D03*
%TD*%
D12*
%TO.C,R1076*%
X22786329Y-7800000D03*
X21766329Y-7800000D03*
%TD*%
D16*
%TO.C,R1102*%
X32799999Y-146910000D03*
X32799999Y-145890000D03*
%TD*%
D15*
%TO.C,C7*%
X8500000Y-41480000D03*
X8500000Y-40520000D03*
%TD*%
D12*
%TO.C,R38*%
X82960000Y-172200000D03*
X81940000Y-172200000D03*
%TD*%
%TO.C,R1040*%
X64460000Y-250600000D03*
X63440000Y-250600000D03*
%TD*%
%TO.C,R264*%
X219860000Y-225399999D03*
X218840000Y-225399999D03*
%TD*%
%TO.C,R823*%
X27460000Y-65800000D03*
X26440000Y-65800000D03*
%TD*%
D13*
%TO.C,C108*%
X97730000Y-275800000D03*
X96770000Y-275800000D03*
%TD*%
D12*
%TO.C,R315*%
X101460000Y-133000000D03*
X100440000Y-133000000D03*
%TD*%
%TO.C,R44*%
X75560000Y-144200000D03*
X74540000Y-144200000D03*
%TD*%
D14*
%TO.C,D60*%
X23326329Y-9900000D03*
X21226329Y-9900000D03*
%TD*%
D12*
%TO.C,R556*%
X57060000Y-211399999D03*
X56040000Y-211399999D03*
%TD*%
%TO.C,R813*%
X112560000Y-68600000D03*
X111540000Y-68600000D03*
%TD*%
%TO.C,R112*%
X190260000Y-149799999D03*
X189240000Y-149799999D03*
%TD*%
D15*
%TO.C,C53*%
X282200000Y-142980000D03*
X282200000Y-142020000D03*
%TD*%
D12*
%TO.C,R380*%
X90360000Y-88199999D03*
X89340000Y-88199999D03*
%TD*%
%TO.C,R507*%
X179160000Y-149799999D03*
X178140000Y-149799999D03*
%TD*%
%TO.C,R971*%
X131060000Y-208600000D03*
X130040000Y-208600000D03*
%TD*%
%TO.C,R194*%
X164360000Y-169399999D03*
X163340000Y-169399999D03*
%TD*%
%TO.C,R120*%
X201360000Y-88199999D03*
X200340000Y-88199999D03*
%TD*%
%TO.C,R131*%
X138460000Y-261799999D03*
X137440000Y-261799999D03*
%TD*%
%TO.C,R621*%
X179160000Y-169399999D03*
X178140000Y-169399999D03*
%TD*%
%TO.C,R812*%
X197660000Y-96600000D03*
X196640000Y-96600000D03*
%TD*%
D13*
%TO.C,C155*%
X197630000Y-292599999D03*
X196670000Y-292599999D03*
%TD*%
D12*
%TO.C,R835*%
X71860000Y-208600000D03*
X70840000Y-208600000D03*
%TD*%
%TO.C,R861*%
X260560000Y-158200000D03*
X259540000Y-158200000D03*
%TD*%
%TO.C,R56*%
X205060000Y-110600000D03*
X204040000Y-110600000D03*
%TD*%
D13*
%TO.C,C137*%
X245730000Y-214200000D03*
X244770000Y-214200000D03*
%TD*%
D12*
%TO.C,R212*%
X142160000Y-222600000D03*
X141140000Y-222600000D03*
%TD*%
%TO.C,R845*%
X119960000Y-93800000D03*
X118940000Y-93800000D03*
%TD*%
%TO.C,R921*%
X45960000Y-65800000D03*
X44940000Y-65800000D03*
%TD*%
%TO.C,R348*%
X175460000Y-141399999D03*
X174440000Y-141399999D03*
%TD*%
%TO.C,R1074*%
X118119940Y-7800000D03*
X117099940Y-7800000D03*
%TD*%
D13*
%TO.C,C115*%
X175430000Y-239399999D03*
X174470000Y-239399999D03*
%TD*%
D12*
%TO.C,R555*%
X123660000Y-124600000D03*
X122640000Y-124600000D03*
%TD*%
%TO.C,R781*%
X64460000Y-91000000D03*
X63440000Y-91000000D03*
%TD*%
%TO.C,R503*%
X201360000Y-127399999D03*
X200340000Y-127399999D03*
%TD*%
%TO.C,R331*%
X68160000Y-63000000D03*
X67140000Y-63000000D03*
%TD*%
%TO.C,R319*%
X108860000Y-169399999D03*
X107840000Y-169399999D03*
%TD*%
D15*
%TO.C,C76*%
X11800000Y-55480000D03*
X11800000Y-54520000D03*
%TD*%
D12*
%TO.C,R223*%
X71860000Y-65800000D03*
X70840000Y-65800000D03*
%TD*%
D16*
%TO.C,R1105*%
X42400000Y-146910000D03*
X42400000Y-145890000D03*
%TD*%
D15*
%TO.C,C16*%
X8500000Y-72980000D03*
X8500000Y-72020000D03*
%TD*%
D12*
%TO.C,R417*%
X123660000Y-49000000D03*
X122640000Y-49000000D03*
%TD*%
%TO.C,R184*%
X260560000Y-155399999D03*
X259540000Y-155399999D03*
%TD*%
%TO.C,R305*%
X108860000Y-208600000D03*
X107840000Y-208600000D03*
%TD*%
D15*
%TO.C,C86*%
X11800000Y-90480000D03*
X11800000Y-89520000D03*
%TD*%
D12*
%TO.C,R788*%
X16360000Y-77000000D03*
X15340000Y-77000000D03*
%TD*%
D15*
%TO.C,C80*%
X11800000Y-69480000D03*
X11800000Y-68520000D03*
%TD*%
%TO.C,C82*%
X11800000Y-76480000D03*
X11800000Y-75520000D03*
%TD*%
D12*
%TO.C,R554*%
X138460000Y-138600000D03*
X137440000Y-138600000D03*
%TD*%
%TO.C,R115*%
X168060000Y-203000000D03*
X167040000Y-203000000D03*
%TD*%
%TO.C,R324*%
X260560000Y-102199999D03*
X259540000Y-102199999D03*
%TD*%
%TO.C,R970*%
X145860000Y-172200000D03*
X144840000Y-172200000D03*
%TD*%
D13*
%TO.C,C147*%
X27430000Y-275800000D03*
X26470000Y-275800000D03*
%TD*%
M02*
